<svg xmlns="http://www.w3.org/2000/svg" width="460" height="394" viewBox="0 0 460 394" version="1.1">
	<path d="M 0 3.917 C 0 6.072, 0.562 8.096, 1.250 8.417 C 2.250 8.883, 2.250 9.117, 1.250 9.583 C 0.308 10.023, -0 15.328, -0 31.083 L 0 52 3.917 52 C 6.145 52, 8.026 51.461, 8.280 50.750 C 8.525 50.063, 9.066 49.815, 9.480 50.201 C 9.895 50.586, 7.932 53.144, 5.117 55.886 C 1.587 59.325, 0 61.665, 0 63.435 C 0 66.726, 0.579 66.663, 4 63 C 5.541 61.350, 7.329 60, 7.973 60 C 9.483 60, 12 57.483, 12 55.973 C 12 55.329, 13.462 53.427, 15.250 51.746 C 17.304 49.815, 18.040 48.533, 17.250 48.262 C 15.467 47.651, 15.702 46, 17.571 46 C 19.801 46, 22 43.517, 22 41 C 22 39.821, 22.643 38.214, 23.429 37.429 C 25.051 35.806, 34 35.443, 34 37 C 34 37.550, 35.350 38, 37 38 C 38.650 38, 40 38.450, 40 39 C 40 39.550, 40.900 40, 42 40 C 43.481 40, 44 40.667, 44 42.571 C 44 43.986, 44.643 45.786, 45.429 46.571 C 47.067 48.210, 50 48.485, 50 47 C 50 46.450, 50.450 46, 51 46 C 51.550 46, 52 46.900, 52 48 C 52 49.100, 52.450 50, 53 50 C 53.550 50, 54 50.900, 54 52 C 54 53.100, 54.450 54, 55 54 C 55.550 54, 56 54.707, 56 55.571 C 56 59.147, 63.191 61.926, 64.247 58.759 C 64.878 56.867, 68 60.396, 68 63 C 68 65.326, 70.154 68, 72.027 68 C 72.671 68, 74.459 69.350, 76 71 C 77.541 72.650, 79.522 74, 80.401 74 C 81.281 74, 82 74.450, 82 75 C 82 75.550, 84.250 76, 87 76 C 89.750 76, 92 75.550, 92 75 C 92 74.450, 92.900 74, 94 74 C 95.100 74, 96 73.550, 96 73 C 96 72.444, 98.667 72, 102 72 C 105.333 72, 108 71.556, 108 71 C 108 70.450, 109.800 70, 112 70 C 114.200 70, 116 69.550, 116 69 C 116 68.450, 117.701 68, 119.779 68 C 122.411 68, 123.996 67.393, 125 66 C 126.485 63.939, 132 63.152, 132 65 C 132 66.452, 137.726 66.229, 138.417 64.750 C 138.883 63.750, 139.117 63.750, 139.583 64.750 C 140.302 66.290, 156 66.529, 156 65 C 156 64.450, 156.900 64, 158 64 C 159.333 64, 160 63.333, 160 62 C 160 60.667, 159.333 60, 158 60 C 156.900 60, 156 59.550, 156 59 C 156 58.450, 156.900 58, 158 58 C 159.100 58, 160 57.550, 160 57 C 160 56.450, 161.350 56, 163 56 C 165.333 56, 166 55.556, 166 54 C 166 52.444, 166.667 52, 169 52 L 172 52 172 58.571 C 172 65.031, 173.259 68, 176 68 C 177.566 68, 180 70.560, 180 72.208 C 180 72.951, 180.900 74.207, 182 75 C 183.100 75.793, 184 77.143, 184 78 C 184 78.857, 184.900 80.207, 186 81 C 187.100 81.793, 188 83.049, 188 83.792 C 188 85.533, 190.467 88, 192.208 88 C 192.951 88, 194.207 88.900, 195 90 C 195.793 91.100, 197.242 92, 198.221 92 C 199.613 92, 200 92.823, 200 95.779 C 200 98.411, 200.607 99.996, 202 101 C 203.100 101.793, 204 103.027, 204 103.742 C 204 106.194, 214.783 116, 217.478 116 C 218.865 116, 220 116.450, 220 117 C 220 117.583, 223.333 118, 228 118 C 232.667 118, 236 118.417, 236 119 C 236 119.550, 236.801 120, 237.779 120 C 238.758 120, 240.207 120.900, 241 122 C 242.485 124.061, 248 124.848, 248 123 C 248 122.450, 248.707 122, 249.571 122 C 250.436 122, 251.818 121.325, 252.643 120.500 C 253.976 119.167, 253.976 118.833, 252.643 117.500 C 250.827 115.684, 244.397 115.507, 243.583 117.250 C 243.117 118.250, 242.883 118.250, 242.417 117.250 C 242.096 116.563, 241.070 116, 240.137 116 C 239.205 116, 237.793 115.100, 237 114 C 236.207 112.900, 234.795 112, 233.863 112 C 232.930 112, 231.904 111.438, 231.583 110.750 C 231.117 109.750, 230.883 109.750, 230.417 110.750 C 230.050 111.535, 227.716 112, 224.137 112 C 219.589 112, 218.151 111.597, 217 110 C 216.207 108.900, 214.951 108, 214.208 108 C 212.467 108, 210 105.533, 210 103.792 C 210 103.049, 209.100 101.793, 208 101 C 205.770 99.393, 205.276 94.505, 207.250 93.583 C 208.250 93.117, 208.250 92.883, 207.250 92.417 C 205.767 91.725, 205.557 88, 207 88 C 207.550 88, 208 87.100, 208 86 C 208 84.333, 207.333 84, 204 84 C 200.667 84, 200 84.333, 200 86 C 200 88.550, 198.838 88.550, 197 86 C 196.207 84.900, 194.951 84, 194.208 84 C 192.377 84, 190 81.499, 190 79.571 C 190 78.707, 189.550 78, 189 78 C 188.450 78, 188 77.100, 188 76 C 188 74.900, 187.550 74, 187 74 C 186.450 74, 186 73.100, 186 72 C 186 70.900, 185.550 70, 185 70 C 184.450 70, 184 69.100, 184 68 C 184 66.900, 184.450 66, 185 66 C 185.550 66, 186 65.100, 186 64 C 186 62.900, 186.450 62, 187 62 C 187.550 62, 188 61.100, 188 60 C 188 58.696, 187.333 58, 186.083 58 C 185.029 58, 183.904 57.437, 183.583 56.750 C 183.117 55.750, 182.883 55.750, 182.417 56.750 C 181.155 59.453, 180 57.766, 180 53.221 C 180 49.589, 180.480 48.096, 182 47 C 183.100 46.207, 184 44.962, 184 44.234 C 184 42.409, 188.565 38, 190.455 38 C 191.305 38, 192 37.550, 192 37 C 192 36.450, 192.900 36, 194 36 C 195.152 36, 196 35.333, 196 34.429 C 196 32.408, 193.592 30, 191.571 30 C 189.015 30, 189.495 23.172, 192.218 20.811 C 194.101 19.178, 194.214 18.734, 192.968 17.868 C 191.856 17.095, 191.803 16.725, 192.750 16.341 C 193.437 16.062, 194 14.971, 194 13.917 C 194 12.667, 194.696 12, 196 12 C 197.481 12, 198 11.333, 198 9.429 C 198 6.535, 200.068 4, 202.429 4 C 203.293 4, 204 3.550, 204 3 C 204 2.450, 204.900 2, 206 2 C 207.100 2, 208 1.550, 208 1 C 208 0.432, 205.074 0, 201.221 0 C 195.589 0, 194.198 0.338, 193 2 C 191.020 4.748, 186 4.748, 186 2 C 186 0.089, 185.333 0, 171 0 C 162.576 0, 156 0.402, 156 0.917 C 156 1.421, 156.562 2.034, 157.250 2.280 C 157.938 2.525, 158.165 3.085, 157.756 3.523 C 157.347 3.962, 156.170 3.349, 155.139 2.160 C 153.639 0.431, 152.158 0, 147.716 0 C 144.254 0, 141.947 0.470, 141.583 1.250 C 141.117 2.250, 140.883 2.250, 140.417 1.250 C 139.958 0.267, 124.872 0, 69.917 0 L 0 0 0 3.917 M 358.250 2.525 C 355.941 4.992, 355.016 12, 357 12 C 357.550 12, 358 12.687, 358 13.526 C 358 15.511, 366.489 24, 368.474 24 C 369.313 24, 370 24.450, 370 25 C 370 25.556, 372.667 26, 376 26 C 379.333 26, 382 26.444, 382 27 C 382 27.550, 382.719 28, 383.599 28 C 384.478 28, 386.459 29.350, 388 31 C 390.737 33.930, 391.025 34, 400.401 34 C 406.134 34, 410 33.597, 410 33 C 410 32.450, 410.707 32, 411.571 32 C 412.436 32, 413.818 31.325, 414.643 30.500 C 415.976 29.167, 415.976 28.833, 414.643 27.500 C 412.965 25.822, 408 25.448, 408 27 C 408 27.597, 404.143 28, 398.429 28 C 388.911 28, 386 27.063, 386 24 C 386 21.073, 383.055 20, 375.026 20 C 367.741 20, 366.657 19.748, 364.455 17.545 C 363.105 16.195, 362 14.433, 362 13.629 C 362 12.825, 361.438 11.904, 360.750 11.583 C 359.750 11.117, 359.750 10.883, 360.750 10.417 C 361.438 10.096, 362 8.971, 362 7.917 C 362 6.863, 362.450 6, 363 6 C 363.550 6, 364 5.100, 364 4 C 364 2.900, 364.450 2, 365 2 C 365.550 2, 366 1.550, 366 1 C 366 -0.947, 360.485 0.139, 358.250 2.525 M 452 0.571 C 452 1.745, 454.913 4, 456.429 4 C 457.293 4, 458 4.450, 458 5 C 458 5.550, 458.450 6, 459 6 C 459.550 6, 460 4.650, 460 3 C 460 0.167, 459.778 0, 456 0 C 453.800 0, 452 0.257, 452 0.571 M 26 5 C 26 5.550, 26.450 6, 27 6 C 27.550 6, 28 5.550, 28 5 C 28 4.450, 27.550 4, 27 4 C 26.450 4, 26 4.450, 26 5 M 178 5 C 178 5.550, 178.900 6, 180 6 C 181.100 6, 182 5.550, 182 5 C 182 4.450, 181.100 4, 180 4 C 178.900 4, 178 4.450, 178 5 M 20 7 C 20 7.550, 20.450 8, 21 8 C 21.550 8, 22 7.550, 22 7 C 22 6.450, 21.550 6, 21 6 C 20.450 6, 20 6.450, 20 7 M 142 10 C 142 11.556, 142.667 12, 145 12 C 146.650 12, 148 12.450, 148 13 C 148 13.550, 148.900 14, 150 14 C 151.100 14, 152 13.550, 152 13 C 152 12.450, 152.900 12, 154 12 C 155.100 12, 156 11.550, 156 11 C 156 10.450, 153.750 10, 151 10 C 148.250 10, 146 9.550, 146 9 C 146 8.450, 145.100 8, 144 8 C 142.667 8, 142 8.667, 142 10 M 32 11 C 32 11.550, 32.450 12, 33 12 C 33.550 12, 34 11.550, 34 11 C 34 10.450, 33.550 10, 33 10 C 32.450 10, 32 10.450, 32 11 M 184 14 C 184 15.100, 184.450 16, 185 16 C 185.550 16, 186 15.100, 186 14 C 186 12.900, 185.550 12, 185 12 C 184.450 12, 184 12.900, 184 14 M 172 17 C 172 17.550, 172.450 18, 173 18 C 173.550 18, 174 17.550, 174 17 C 174 16.450, 173.550 16, 173 16 C 172.450 16, 172 16.450, 172 17 M 326 17.779 C 326 18.758, 325.100 20.207, 324 21 C 322.826 21.847, 322 23.589, 322 25.221 C 322 26.749, 321.550 28, 321 28 C 320.450 28, 320 27.550, 320 27 C 320 26.450, 319.100 26, 318 26 C 316.667 26, 316 26.667, 316 28 C 316 29.137, 316.667 30, 317.545 30 C 319.546 30, 324 34.454, 324 36.455 C 324 37.305, 324.450 38, 325 38 C 325.550 38, 326 39.800, 326 42 C 326 44.200, 325.550 46, 325 46 C 324.450 46, 324 46.900, 324 48 C 324 49.100, 323.550 50, 323 50 C 322.450 50, 322 50.710, 322 51.578 C 322 52.447, 320.087 54.996, 317.750 57.243 C 315.171 59.723, 313.992 61.494, 314.750 61.748 C 315.438 61.978, 316 63.479, 316 65.083 C 316 66.688, 316.257 68, 316.571 68 C 317.583 68, 320 65.180, 320 64 C 320 62.346, 322.597 60, 324.429 60 C 325.595 60, 326 61.030, 326 64 C 326 66.200, 326.450 68, 327 68 C 327.550 68, 328 69.140, 328 70.533 C 328 74.258, 334.089 80, 338.038 80 C 340.790 80, 344 78.154, 344 76.571 C 344 76.257, 342.405 76, 340.455 76 C 338.024 76, 336.138 75.228, 334.455 73.545 C 332.252 71.343, 332 70.259, 332 62.974 C 332 54.057, 333.017 52, 337.429 52 C 339.333 52, 340 52.519, 340 54 C 340 55.100, 340.450 56, 341 56 C 341.550 56, 342 56.900, 342 58 C 342 59.100, 342.450 60, 343 60 C 343.550 60, 344 60.900, 344 62 C 344 63.100, 344.450 64, 345 64 C 345.550 64, 346 64.695, 346 65.545 C 346 67.546, 350.454 72, 352.455 72 C 353.305 72, 354 72.450, 354 73 C 354 73.550, 354.900 74, 356 74 C 357.100 74, 358 74.450, 358 75 C 358 75.550, 359.350 76, 361 76 C 363.061 76, 364 75.508, 364 74.429 C 364 72.408, 361.592 70, 359.571 70 C 358.707 70, 358 69.550, 358 69 C 358 68.450, 356.843 68, 355.429 68 C 352.535 68, 350 65.932, 350 63.571 C 350 62.707, 349.550 62, 349 62 C 348.450 62, 348 60.650, 348 59 C 348 54.795, 350.318 55.126, 355 60 C 357.114 62.200, 359.454 64, 360.201 64 C 360.948 64, 362.207 64.900, 363 66 C 363.847 67.174, 365.589 68, 367.221 68 C 368.749 68, 370 68.450, 370 69 C 370 69.550, 371.350 70, 373 70 C 374.650 70, 376 70.450, 376 71 C 376 71.609, 380.524 72, 387.571 72 C 399.148 72, 402 71.209, 402 68 C 402 66.346, 399.403 64, 397.571 64 C 396.707 64, 396 64.450, 396 65 C 396 65.606, 391.667 66, 385 66 C 378.333 66, 374 65.606, 374 65 C 374 64.450, 372.650 64, 371 64 C 369.350 64, 368 63.550, 368 63 C 368 62.450, 367.100 62, 366 62 C 364.900 62, 364 61.550, 364 61 C 364 60.450, 363.293 60, 362.429 60 C 360.610 60, 358 57.658, 358 56.026 C 358 55.412, 356.895 53.805, 355.545 52.455 C 353.457 50.366, 352.148 50, 346.766 50 C 341.589 50, 340.180 49.637, 339 48 C 338.207 46.900, 336.962 46, 336.234 46 C 334.072 46, 330 41.274, 330 38.766 C 330 37.488, 329.100 35.793, 328 35 C 325.061 32.882, 325.134 23.486, 328.109 20.905 C 330.007 19.259, 330.065 18.922, 328.681 17.538 C 326.678 15.535, 326 15.596, 326 17.779 M 160 21 C 160 21.550, 160.450 22, 161 22 C 161.550 22, 162 21.550, 162 21 C 162 20.450, 161.550 20, 161 20 C 160.450 20, 160 20.450, 160 21 M 176 21 C 176 21.550, 177.350 22, 179 22 C 180.650 22, 182 22.450, 182 23 C 182 23.550, 182.450 24, 183 24 C 183.550 24, 184 23.100, 184 22 C 184 20.333, 183.333 20, 180 20 C 177.800 20, 176 20.450, 176 21 M 134 23 C 134 23.550, 134.900 24, 136 24 C 137.100 24, 138 23.550, 138 23 C 138 22.450, 137.100 22, 136 22 C 134.900 22, 134 22.450, 134 23 M 44 31 C 44 31.550, 44.450 32, 45 32 C 45.550 32, 46 31.550, 46 31 C 46 30.450, 45.550 30, 45 30 C 44.450 30, 44 30.450, 44 31 M 182 32 C 182 33.100, 182.450 34, 183 34 C 183.550 34, 184 33.100, 184 32 C 184 30.900, 183.550 30, 183 30 C 182.450 30, 182 30.900, 182 32 M 217.250 33.540 C 215.463 35.412, 214 37.631, 214 38.472 C 214 39.312, 213.550 40, 213 40 C 212.450 40, 212 41.800, 212 44 C 212 46.200, 212.450 48, 213 48 C 213.550 48, 214 49.350, 214 51 C 214 52.650, 214.450 54, 215 54 C 215.550 54, 216 54.690, 216 55.533 C 216 57.524, 222.476 64, 224.467 64 C 225.310 64, 226 64.450, 226 65 C 226 65.550, 228.250 66, 231 66 C 234.879 66, 236 66.352, 236 67.571 C 236 69.499, 238.377 72, 240.208 72 C 240.951 72, 242.207 72.900, 243 74 C 244.155 75.603, 245.589 76, 250.221 76 C 253.407 76, 256 75.551, 256 75 C 256 74.450, 256.707 74, 257.571 74 C 259.592 74, 262 71.592, 262 69.571 C 262 68.352, 260.879 68, 257 68 C 254.250 68, 252 68.450, 252 69 C 252 69.550, 250.200 70, 248 70 C 245.800 70, 244 69.550, 244 69 C 244 68.450, 243.293 68, 242.429 68 C 240.597 68, 238 65.654, 238 64 C 238 62.118, 234.734 59.297, 234.247 60.759 C 233.756 62.232, 230 62.446, 230 61 C 230 60.450, 228.393 60, 226.429 60 C 222.214 60, 220 58.130, 220 54.571 C 220 53.157, 219.550 52, 219 52 C 218.444 52, 218 49.333, 218 46 C 218 42.667, 218.444 40, 219 40 C 219.550 40, 220 39.293, 220 38.429 C 220 36.408, 222.408 34, 224.429 34 C 226.378 34, 226.418 33.275, 224.571 31.429 C 222.449 29.306, 220.855 29.766, 217.250 33.540 M 168 33 C 168 33.550, 168.450 34, 169 34 C 169.550 34, 170 33.550, 170 33 C 170 32.450, 169.550 32, 169 32 C 168.450 32, 168 32.450, 168 33 M 88 36 C 88 37.100, 88.450 38, 89 38 C 89.550 38, 90 37.100, 90 36 C 90 34.900, 89.550 34, 89 34 C 88.450 34, 88 34.900, 88 36 M 102 37 C 102 37.550, 102.450 38, 103 38 C 103.550 38, 104 37.550, 104 37 C 104 36.450, 103.550 36, 103 36 C 102.450 36, 102 36.450, 102 37 M 178 37 C 178 37.550, 178.450 38, 179 38 C 179.550 38, 180 37.550, 180 37 C 180 36.450, 179.550 36, 179 36 C 178.450 36, 178 36.450, 178 37 M 104 41 C 104 41.550, 104.450 42, 105 42 C 105.550 42, 106 41.550, 106 41 C 106 40.450, 105.550 40, 105 40 C 104.450 40, 104 40.450, 104 41 M 170 43 C 170 45.333, 170.444 46, 172 46 C 174.341 46, 174.653 43.510, 172.571 41.429 C 170.489 39.346, 170 39.645, 170 43 M 106 45 C 106 45.550, 106.450 46, 107 46 C 107.550 46, 108 45.550, 108 45 C 108 44.450, 107.550 44, 107 44 C 106.450 44, 106 44.450, 106 45 M 108 49 C 108 49.550, 108.450 50, 109 50 C 109.550 50, 110 49.550, 110 49 C 110 48.450, 109.550 48, 109 48 C 108.450 48, 108 48.450, 108 49 M 126 49 C 126 49.550, 126.900 50, 128 50 C 129.100 50, 130 49.550, 130 49 C 130 48.450, 129.100 48, 128 48 C 126.900 48, 126 48.450, 126 49 M 326 49 C 326 49.550, 326.450 50, 327 50 C 327.550 50, 328 49.550, 328 49 C 328 48.450, 327.550 48, 327 48 C 326.450 48, 326 48.450, 326 49 M 330 49 C 330 49.550, 330.450 50, 331 50 C 331.550 50, 332 49.550, 332 49 C 332 48.450, 331.550 48, 331 48 C 330.450 48, 330 48.450, 330 49 M 112 51 C 112 51.550, 112.900 52, 114 52 C 115.100 52, 116 51.550, 116 51 C 116 50.450, 115.100 50, 114 50 C 112.900 50, 112 50.450, 112 51 M 74 54.571 C 74 57.465, 76.068 60, 78.429 60 C 79.293 60, 80 60.450, 80 61 C 80 61.550, 80.900 62, 82 62 C 83.100 62, 84 61.550, 84 61 C 84 60.450, 83.305 60, 82.455 60 C 80.454 60, 76 55.546, 76 53.545 C 76 52.695, 75.550 52, 75 52 C 74.450 52, 74 53.157, 74 54.571 M 88 54.545 C 88 54.845, 89.105 56.195, 90.455 57.545 C 91.805 58.895, 93.155 60, 93.455 60 C 94.568 60, 93.951 56.809, 92.571 55.429 C 91.191 54.049, 88 53.432, 88 54.545 M 138 56 C 138 57.733, 138.667 58, 143 58 C 145.750 58, 148 57.550, 148 57 C 148 56.450, 146.200 56, 144 56 C 141.800 56, 140 55.550, 140 55 C 140 54.450, 139.550 54, 139 54 C 138.450 54, 138 54.900, 138 56 M 118 59 C 118 59.556, 115.333 60, 112 60 C 105.654 60, 105.144 60.287, 107.429 62.571 C 109.052 64.195, 114 64.518, 114 63 C 114 62.450, 114.900 62, 116 62 C 117.100 62, 118 61.550, 118 61 C 118 60.450, 118.900 60, 120 60 C 121.100 60, 122 60.450, 122 61 C 122 61.550, 122.450 62, 123 62 C 123.550 62, 124 61.100, 124 60 C 124 58.444, 123.333 58, 121 58 C 119.350 58, 118 58.450, 118 59 M 404 63.571 C 404 67.786, 405.870 70, 409.429 70 C 410.843 70, 412 70.450, 412 71 C 412 71.550, 412.900 72, 414 72 C 415.100 72, 416 72.450, 416 73 C 416 73.550, 417.800 74, 420 74 C 422.200 74, 424 74.450, 424 75 C 424 75.550, 424.900 76, 426 76 C 427.100 76, 428 75.550, 428 75 C 428 74.444, 430.667 74, 434 74 C 437.333 74, 440 73.556, 440 73 C 440 72.450, 440.863 72, 441.917 72 C 442.971 72, 444.035 71.438, 444.282 70.750 C 444.586 69.902, 445.375 70.224, 446.733 71.750 C 448.361 73.580, 449.786 74, 454.367 74 C 459.959 74, 460 73.978, 460 71 C 460 68.013, 459.975 68, 454.221 68 C 449.589 68, 448.155 67.603, 447 66 C 445.511 63.934, 442 63.232, 442 65 C 442 65.550, 440.650 66, 439 66 C 437.350 66, 436 66.450, 436 67 C 436 67.600, 432 68, 426 68 C 420 68, 416 67.600, 416 67 C 416 66.450, 415.100 66, 414 66 C 412.848 66, 412 65.333, 412 64.429 C 412 62.068, 409.465 60, 406.571 60 C 404.290 60, 404 60.402, 404 63.571 M 86 69 C 86 69.550, 86.900 70, 88 70 C 89.100 70, 90 69.550, 90 69 C 90 68.450, 89.100 68, 88 68 C 86.900 68, 86 68.450, 86 69 M 308 70 C 308 71.556, 308.667 72, 311 72 C 313.333 72, 314 71.556, 314 70 C 314 68.444, 313.333 68, 311 68 C 308.667 68, 308 68.444, 308 70 M 304 74 C 304 76.200, 303.550 78, 303 78 C 302.450 78, 302 78.695, 302 79.545 C 302 81.435, 297.591 86, 295.766 86 C 295.038 86, 293.793 86.900, 293 88 C 292.207 89.100, 290.758 90, 289.779 90 C 288.801 90, 288 90.450, 288 91 C 288 91.550, 286.650 92, 285 92 C 282.456 92, 282 92.385, 282 94.533 C 282 97.350, 276.053 104, 273.533 104 C 272.690 104, 272 104.450, 272 105 C 272 105.550, 271.100 106, 270 106 C 268.900 106, 268 106.450, 268 107 C 268 107.600, 264 108, 258 108 C 252.500 108, 248 108.240, 248 108.533 C 248 108.827, 249.560 110.627, 251.467 112.533 C 254.403 115.469, 255.627 116, 259.467 116 C 261.960 116, 264 115.550, 264 115 C 264 114.450, 265.800 114, 268 114 C 270.200 114, 272 113.550, 272 113 C 272 112.450, 272.801 112, 273.779 112 C 274.758 112, 276.207 111.100, 277 110 C 277.793 108.900, 279.038 108, 279.766 108 C 281.375 108, 286 103.529, 286 101.974 C 286 100.342, 288.610 98, 290.429 98 C 291.293 98, 292 97.550, 292 97 C 292 96.450, 292.801 96, 293.779 96 C 294.758 96, 296.207 95.100, 297 94 C 297.793 92.900, 299.032 92, 299.754 92 C 300.476 92, 302.627 90.440, 304.533 88.533 C 307.732 85.335, 308 84.594, 308 78.962 C 308 75.004, 307.498 72.355, 306.571 71.429 C 304.397 69.254, 304 69.651, 304 74 M 378 109 C 378 109.550, 375.750 110, 373 110 C 370.250 110, 368 110.450, 368 111 C 368 111.550, 367.100 112, 366 112 C 364.900 112, 364 112.450, 364 113 C 364 113.550, 363.100 114, 362 114 C 360.900 114, 360 114.450, 360 115 C 360 115.550, 358.749 116, 357.221 116 C 355.589 116, 353.847 116.826, 353 118 C 352.207 119.100, 350.758 120, 349.779 120 C 348.469 120, 348 120.791, 348 123 C 348 125.333, 348.444 126, 350 126 C 351.100 126, 352 125.550, 352 125 C 352 124.450, 352.801 124, 353.779 124 C 354.758 124, 356.207 123.100, 357 122 C 357.793 120.900, 359.242 120, 360.221 120 C 361.199 120, 362 119.550, 362 119 C 362 118.450, 362.900 118, 364 118 C 365.100 118, 366 117.550, 366 117 C 366 116.444, 368.667 116, 372 116 C 375.333 116, 378 115.556, 378 115 C 378 114.450, 380.250 114, 383 114 C 385.750 114, 388 113.550, 388 113 C 388 111.501, 399.710 111.736, 400.417 113.250 C 400.883 114.250, 401.117 114.250, 401.583 113.250 C 402.275 111.767, 406 111.557, 406 113 C 406 113.550, 407.350 114, 409 114 C 410.650 114, 412 114.450, 412 115 C 412 115.550, 414.250 116, 417 116 C 421.333 116, 422 115.733, 422 114 C 422 112.444, 421.333 112, 419 112 C 417.350 112, 416 111.550, 416 111 C 416 110.450, 415.100 110, 414 110 C 412.900 110, 412 109.550, 412 109 C 412 108.373, 405.667 108, 395 108 C 384.333 108, 378 108.373, 378 109 M 398 119 C 398 119.550, 396.200 120, 394 120 C 391.800 120, 390 120.450, 390 121 C 390 121.550, 388.650 122, 387 122 C 385.350 122, 384 122.450, 384 123 C 384 123.550, 382.650 124, 381 124 C 379.350 124, 378 124.450, 378 125 C 378 125.550, 377.100 126, 376 126 C 374.900 126, 374 126.450, 374 127 C 374 127.550, 373.199 128, 372.221 128 C 371.242 128, 369.793 128.900, 369 130 C 368.207 131.100, 366.758 132, 365.779 132 C 364.667 132, 364 132.749, 364 134 C 364 135.100, 363.550 136, 363 136 C 362.450 136, 362 136.900, 362 138 C 362 140.223, 363.511 140.692, 364.417 138.750 C 364.883 137.750, 365.117 137.750, 365.583 138.750 C 366.302 140.290, 382 140.529, 382 139 C 382 138.450, 383.800 138, 386 138 C 388.200 138, 390 137.550, 390 137 C 390 136.450, 391.800 136, 394 136 C 396.200 136, 398 135.550, 398 135 C 398 134.450, 399.350 134, 401 134 C 402.650 134, 404 133.550, 404 133 C 404 132.450, 405.350 132, 407 132 C 408.650 132, 410 131.550, 410 131 C 410 130.450, 410.900 130, 412 130 C 413.100 130, 414 129.550, 414 129 C 414 128.450, 414.900 128, 416 128 C 417.100 128, 418 127.550, 418 127 C 418 126.450, 418.707 126, 419.571 126 C 421.087 126, 424 123.745, 424 122.571 C 424 122.257, 423.100 122, 422 122 C 420.900 122, 420 121.550, 420 121 C 420 120.450, 418.650 120, 417 120 C 415.350 120, 414 119.550, 414 119 C 414 118.417, 410.667 118, 406 118 C 401.333 118, 398 118.417, 398 119 M 220 132 C 220 139.333, 219.611 144, 219 144 C 218.417 144, 218 147.333, 218 152 C 218 156.667, 217.583 160, 217 160 C 216.407 160, 216 163.667, 216 169 C 216 177.333, 216.148 178, 218 178 C 219.333 178, 220 178.667, 220 180 C 220 181.100, 220.450 182, 221 182 C 221.556 182, 222 184.667, 222 188 C 222 191.333, 221.556 194, 221 194 C 220.450 194, 220 192.200, 220 190 C 220 187.800, 219.550 186, 219 186 C 218.450 186, 218 185.281, 218 184.401 C 218 183.522, 216.650 181.541, 215 180 C 213.350 178.459, 212 176.671, 212 176.027 C 212 174.350, 209.416 172, 207.571 172 C 206.707 172, 206 171.550, 206 171 C 206 170.450, 205.199 170, 204.221 170 C 203.242 170, 201.793 169.100, 201 168 C 199.996 166.607, 198.411 166, 195.779 166 C 193.701 166, 192 165.550, 192 165 C 192 164.444, 189.333 164, 186 164 C 182.667 164, 180 163.556, 180 163 C 180 162.417, 176.667 162, 172 162 C 167.333 162, 164 161.583, 164 161 C 164 160.394, 159.667 160, 153 160 L 142 160 142 163.545 C 142 167.336, 138.439 172, 135.545 172 C 134.667 172, 134 172.863, 134 174 C 134 175.100, 133.550 176, 133 176 C 132.450 176, 132 176.900, 132 178 C 132 179.100, 131.550 180, 131 180 C 130.450 180, 130 181.350, 130 183 C 130 184.650, 129.550 186, 129 186 C 128.417 186, 128 189.333, 128 194 C 128 198.667, 128.417 202, 129 202 C 129.550 202, 130 203.350, 130 205 C 130 206.650, 130.450 208, 131 208 C 131.550 208, 132 208.900, 132 210 C 132 211.100, 132.450 212, 133 212 C 133.550 212, 134 212.900, 134 214 C 134 215.100, 134.450 216, 135 216 C 135.550 216, 136 216.900, 136 218 C 136 219.100, 135.550 220, 135 220 C 134.444 220, 134 222.667, 134 226 C 134 229.333, 134.444 232, 135 232 C 135.550 232, 136 233.350, 136 235 C 136 236.650, 136.450 238, 137 238 C 137.550 238, 138 238.900, 138 240 C 138 241.100, 138.450 242, 139 242 C 139.550 242, 140 244.250, 140 247 C 140 249.750, 139.550 252, 139 252 C 138.450 252, 138 250.843, 138 249.429 C 138 248.014, 137.357 246.214, 136.571 245.429 C 134.490 243.347, 132 243.659, 132 246 C 132 247.100, 132.450 248, 133 248 C 133.550 248, 134 248.900, 134 250 C 134 251.100, 133.550 252, 133 252 C 132.450 252, 132 253.137, 132 254.526 C 132 257.351, 124.105 266, 121.526 266 C 120.687 266, 120 266.450, 120 267 C 120 267.583, 116.667 268, 112 268 C 107.333 268, 104 267.583, 104 267 C 104 266.450, 103.305 266, 102.455 266 C 100.696 266, 96 261.644, 96 260.012 C 96 259.419, 94.440 257.373, 92.533 255.467 C 89.597 252.531, 88.373 252, 84.533 252 C 82.040 252, 80 251.550, 80 251 C 80 250.450, 79.100 250, 78 250 C 76.900 250, 76 249.550, 76 249 C 76 248.450, 75.100 248, 74 248 C 72.667 248, 72 247.333, 72 246 C 72 244.900, 71.550 244, 71 244 C 70.450 244, 70 242.846, 70 241.435 C 70 239.673, 71.565 237.345, 75 234 C 77.750 231.321, 80 228.876, 80 228.565 C 80 228.254, 79.137 228, 78.083 228 C 77.029 228, 75.904 227.438, 75.583 226.750 C 75.117 225.750, 74.883 225.750, 74.417 226.750 C 74.096 227.438, 73.008 228, 72 228 C 70.992 228, 69.904 228.563, 69.583 229.250 C 69.117 230.250, 68.883 230.250, 68.417 229.250 C 68.038 228.439, 65.566 228, 61.383 228 C 55.357 228, 54.706 228.228, 51.467 231.467 C 48.127 234.806, 46.921 238, 49 238 C 49.550 238, 50 237.550, 50 237 C 50 236.450, 50.900 236, 52 236 C 53.100 236, 54 235.550, 54 235 C 54 234.450, 54.900 234, 56 234 C 57.100 234, 58 233.550, 58 233 C 58 232.450, 59.350 232, 61 232 C 62.650 232, 64 231.550, 64 231 C 64 230.450, 64.900 230, 66 230 C 67.333 230, 68 230.667, 68 232 C 68 233.100, 67.550 234, 67 234 C 66.450 234, 66 236.250, 66 239 C 66 241.750, 66.450 244, 67 244 C 67.550 244, 68 245.157, 68 246.571 C 68 249.778, 70.132 252, 73.208 252 C 74.501 252, 76.207 252.900, 77 254 C 77.793 255.100, 79.242 256, 80.221 256 C 81.199 256, 82 256.450, 82 257 C 82 257.550, 83.595 258, 85.545 258 C 89.058 258, 94 261.500, 94 263.988 C 94 266.146, 100.917 272, 103.467 272 C 104.860 272, 106 272.450, 106 273 C 106 273.571, 109 274, 113 274 C 117 274, 120 273.571, 120 273 C 120 272.450, 120.900 272, 122 272 C 123.100 272, 124 271.550, 124 271 C 124 270.450, 124.900 270, 126 270 C 127.100 270, 128 269.550, 128 269 C 128 268.450, 128.900 268, 130 268 C 131.137 268, 132 267.333, 132 266.455 C 132 264.689, 136.359 260, 138 260 C 138.600 260, 140.195 258.895, 141.545 257.545 C 143.634 255.457, 144 254.148, 144 248.766 C 144 243.589, 143.637 242.180, 142 241 C 139.527 239.218, 139.228 234, 141.599 234 C 142.478 234, 144.459 235.350, 146 237 C 149.294 240.527, 150 240.703, 150 238 C 150 236.900, 149.550 236, 149 236 C 148.450 236, 148 235.293, 148 234.429 C 148 232.408, 145.592 230, 143.571 230 C 142.707 230, 142 229.550, 142 229 C 142 228.450, 141.100 228, 140 228 C 138.333 228, 138 227.333, 138 224 C 138 221.800, 138.450 220, 139 220 C 139.550 220, 140 220.450, 140 221 C 140 221.550, 140.900 222, 142 222 C 143.100 222, 144 222.450, 144 223 C 144 223.550, 144.801 224, 145.779 224 C 146.758 224, 148.207 224.900, 149 226 C 150.198 227.662, 151.589 228, 157.221 228 C 161.074 228, 164 228.432, 164 229 C 164 229.611, 168.667 230, 176 230 C 183.333 230, 188 229.611, 188 229 C 188 228.444, 190.667 228, 194 228 C 197.333 228, 200 227.556, 200 227 C 200 226.450, 200.719 226, 201.599 226 C 202.478 226, 204.459 224.650, 206 223 C 207.541 221.350, 209.522 220, 210.401 220 C 211.281 220, 212 219.199, 212 218.221 C 212 217.242, 212.900 215.793, 214 215 C 215.100 214.207, 216 212.758, 216 211.779 C 216 210.801, 216.450 210, 217 210 C 217.550 210, 218 208.650, 218 207 C 218 205.350, 218.450 204, 219 204 C 219.583 204, 220 207.333, 220 212 C 220 216.667, 219.583 220, 219 220 C 218.450 220, 218 221.350, 218 223 C 218 224.650, 217.550 226, 217 226 C 216.450 226, 216 228.250, 216 231 C 216 235.704, 215.848 236, 213.429 236 C 209.635 236, 208 238.237, 208 243.429 C 208 245.943, 207.550 248, 207 248 C 206.450 248, 206 250.250, 206 253 C 206 255.750, 205.550 258, 205 258 C 204.450 258, 204 260.250, 204 263 C 204 265.750, 203.550 268, 203 268 C 202.450 268, 202 269.350, 202 271 C 202 272.650, 201.550 274, 201 274 C 200.450 274, 200 274.900, 200 276 C 200 277.100, 199.550 278, 199 278 C 198.450 278, 198 279.350, 198 281 C 198 282.650, 197.550 284, 197 284 C 196.450 284, 196 285.800, 196 288 C 196 290.200, 195.550 292, 195 292 C 194.450 292, 194 292.900, 194 294 C 194 295.100, 193.550 296, 193 296 C 192.450 296, 192 297.251, 192 298.779 C 192 300.411, 191.174 302.153, 190 303 C 188.900 303.793, 188 305.242, 188 306.221 C 188 307.199, 187.550 308, 187 308 C 186.450 308, 186 308.900, 186 310 C 186 311.100, 185.550 312, 185 312 C 184.450 312, 184 312.801, 184 313.779 C 184 314.758, 183.100 316.207, 182 317 C 180.900 317.793, 180 319.052, 180 319.799 C 180 320.546, 178.200 322.886, 176 325 C 173.800 327.114, 172 329.358, 172 329.987 C 172 330.615, 169.750 333.321, 167 336 C 164.250 338.679, 162 341.358, 162 341.954 C 162 343.493, 149.302 356, 147.739 356 C 147.026 356, 145.793 356.900, 145 358 C 144.207 359.100, 142.758 360, 141.779 360 C 140.667 360, 140 360.749, 140 362 C 140 363.520, 139.333 364, 137.221 364 C 135.589 364, 133.847 364.826, 133 366 C 132.207 367.100, 130.758 368, 129.779 368 C 128.801 368, 128 368.450, 128 369 C 128 369.550, 126.650 370, 125 370 C 123.350 370, 122 370.450, 122 371 C 122 371.550, 119.750 372, 117 372 C 114.250 372, 112 372.450, 112 373 C 112 373.550, 110.650 374, 109 374 C 107.350 374, 106 374.450, 106 375 C 106 375.550, 104.200 376, 102 376 C 99.800 376, 98 376.450, 98 377 C 98 377.619, 92.667 378, 84 378 C 75.333 378, 70 377.619, 70 377 C 70 376.450, 68.650 376, 67 376 C 65.350 376, 64 375.550, 64 375 C 64 374.450, 63.100 374, 62 374 C 60.900 374, 60 373.550, 60 373 C 60 372.450, 59.281 372, 58.401 372 C 57.522 372, 55.541 370.650, 54 369 C 52.459 367.350, 50.577 366, 49.820 366 C 49.062 366, 47.793 365.100, 47 364 C 46.207 362.900, 44.498 362, 43.201 362 C 41.757 362, 39.353 360.449, 37 358 C 34.886 355.800, 32.447 354, 31.578 354 C 30.710 354, 30 353.308, 30 352.462 C 30 351.615, 25.950 346.908, 21 342 C 16.050 337.092, 12 332.574, 12 331.960 C 12 331.346, 10.200 329.114, 8 327 C 5.800 324.886, 4 322.447, 4 321.578 C 4 320.710, 3.550 320, 3 320 C 2.450 320, 2 319.100, 2 318 C 2 316.900, 1.550 316, 1 316 C 0.444 316, 0 318.667, 0 322 C 0 325.333, 0.444 328, 1 328 C 1.550 328, 2 328.801, 2 329.779 C 2 330.758, 2.900 332.207, 4 333 C 5.100 333.793, 6 335.049, 6 335.792 C 6 337.623, 8.501 340, 10.429 340 C 11.293 340, 12 340.710, 12 341.578 C 12 342.447, 13.800 344.886, 16 347 C 18.200 349.114, 20 351.553, 20 352.422 C 20 353.290, 20.697 354, 21.548 354 C 22.400 354, 26.203 357.150, 30 361 C 33.797 364.850, 37.600 368, 38.452 368 C 39.303 368, 40 368.450, 40 369 C 40 369.550, 41.800 370, 44 370 C 46.200 370, 48 370.450, 48 371 C 48 371.550, 48.719 372, 49.599 372 C 50.478 372, 52.459 373.350, 54 375 C 55.541 376.650, 57.522 378, 58.401 378 C 59.281 378, 60 378.450, 60 379 C 60 379.550, 61.350 380, 63 380 C 64.650 380, 66 380.450, 66 381 C 66 381.550, 67.350 382, 69 382 C 70.650 382, 72 382.450, 72 383 C 72 383.615, 77 384, 85 384 C 93 384, 98 383.615, 98 383 C 98 382.450, 99.800 382, 102 382 C 104.200 382, 106 381.550, 106 381 C 106 380.450, 108.250 380, 111 380 C 113.750 380, 116 379.550, 116 379 C 116 378.450, 117.800 378, 120 378 C 122.200 378, 124 377.550, 124 377 C 124 376.450, 124.900 376, 126 376 C 127.100 376, 128 375.550, 128 375 C 128 374.450, 128.900 374, 130 374 C 131.100 374, 132 373.550, 132 373 C 132 372.450, 133.350 372, 135 372 C 136.650 372, 138 371.550, 138 371 C 138 370.450, 138.719 370, 139.599 370 C 140.478 370, 142.459 368.650, 144 367 C 145.541 365.350, 147.302 364, 147.913 364 C 149.335 364, 170 343.376, 170 341.956 C 170 341.369, 172.700 338.239, 176 335 C 179.300 331.761, 182 328.411, 182 327.555 C 182 325.622, 182.729 325.586, 184.571 327.429 C 186.264 329.121, 186.653 346, 185 346 C 184.450 346, 184 347.350, 184 349 C 184 350.650, 183.550 352, 183 352 C 182.450 352, 182 352.900, 182 354 C 182 355.100, 181.550 356, 181 356 C 180.450 356, 180 356.900, 180 358 C 180 359.100, 179.550 360, 179 360 C 178.450 360, 178 360.719, 178 361.599 C 178 362.478, 176.650 364.459, 175 366 C 173.350 367.541, 172 369.319, 172 369.949 C 172 370.580, 168.850 374.203, 165 378 C 161.150 381.797, 158 385.420, 158 386.051 C 158 386.681, 156.650 388.459, 155 390 C 153.350 391.541, 152 393.072, 152 393.401 C 152 393.731, 154.057 394, 156.571 394 C 161.015 394, 164 392.399, 164 390.016 C 164 389.396, 166.700 386.239, 170 383 C 173.300 379.761, 176 376.601, 176 375.977 C 176 375.353, 177.800 373.114, 180 371 C 182.200 368.886, 184 366.447, 184 365.578 C 184 364.710, 184.450 364, 185 364 C 185.550 364, 186 363.100, 186 362 C 186 360.900, 186.450 360, 187 360 C 187.550 360, 188 358.299, 188 356.221 C 188 353.589, 188.607 352.004, 190 351 C 191.511 349.911, 192 348.411, 192 344.863 C 192 342.084, 192.510 339.929, 193.250 339.583 C 194.250 339.117, 194.250 338.883, 193.250 338.417 C 192.433 338.035, 192 335.516, 192 331.137 C 192 325.589, 191.657 324.195, 190 323 C 187.450 321.162, 187.450 318.838, 190 317 C 191.100 316.207, 192 314.758, 192 313.779 C 192 312.801, 192.450 312, 193 312 C 193.550 312, 194 311.100, 194 310 C 194 308.900, 194.450 308, 195 308 C 195.550 308, 196 307.100, 196 306 C 196 304.900, 196.450 304, 197 304 C 197.550 304, 198 303.100, 198 302 C 198 300.900, 198.450 300, 199 300 C 199.550 300, 200 299.100, 200 298 C 200 296.900, 200.450 296, 201 296 C 201.550 296, 202 297.350, 202 299 C 202 300.650, 202.450 302, 203 302 C 203.550 302, 204 304.250, 204 307 C 204 309.750, 204.450 312, 205 312 C 205.550 312, 206 313.350, 206 315 C 206 316.650, 206.450 318, 207 318 C 207.550 318, 208 320.250, 208 323 C 208 325.750, 208.450 328, 209 328 C 209.550 328, 210 330.250, 210 333 C 210 335.750, 210.450 338, 211 338 C 211.556 338, 212 340.667, 212 344 C 212 347.333, 212.444 350, 213 350 C 213.636 350, 214 358, 214 372 L 214 394 217 394 L 220 394 220 368 C 220 351.333, 219.641 342, 219 342 C 218.450 342, 218 339.750, 218 337 C 218 334.250, 217.550 332, 217 332 C 216.450 332, 216 330.200, 216 328 C 216 325.800, 215.550 324, 215 324 C 214.450 324, 214 321.750, 214 319 C 214 316.250, 213.550 314, 213 314 C 212.450 314, 212 312.200, 212 310 C 212 307.800, 211.550 306, 211 306 C 210.450 306, 210 304.650, 210 303 C 210 301.350, 209.550 300, 209 300 C 208.450 300, 208 299.293, 208 298.429 C 208 296.408, 205.592 294, 203.571 294 C 202.667 294, 202 293.152, 202 292 C 202 290.900, 202.450 290, 203 290 C 203.550 290, 204 288.200, 204 286 C 204 282.667, 204.333 282, 206 282 C 207.100 282, 208 282.450, 208 283 C 208 283.550, 209.800 284, 212 284 C 214.200 284, 216 284.450, 216 285 C 216 285.550, 216.900 286, 218 286 C 219.100 286, 220 286.450, 220 287 C 220 287.550, 220.900 288, 222 288 C 223.100 288, 224 288.450, 224 289 C 224 289.550, 225.350 290, 227 290 C 228.650 290, 230 290.450, 230 291 C 230 291.550, 231.350 292, 233 292 C 234.650 292, 236 292.450, 236 293 C 236 293.550, 236.900 294, 238 294 C 239.100 294, 240 294.450, 240 295 C 240 295.550, 240.900 296, 242 296 C 243.100 296, 244 296.450, 244 297 C 244 297.550, 244.900 298, 246 298 C 247.100 298, 248 298.450, 248 299 C 248 299.550, 248.900 300, 250 300 C 251.100 300, 252 300.450, 252 301 C 252 301.550, 252.900 302, 254 302 C 255.100 302, 256 302.450, 256 303 C 256 303.550, 256.801 304, 257.779 304 C 258.758 304, 260.207 304.900, 261 306 C 261.793 307.100, 263.052 308, 263.799 308 C 264.546 308, 266.886 309.800, 269 312 C 271.114 314.200, 273.553 316, 274.422 316 C 275.290 316, 276 316.707, 276 317.571 C 276 319.384, 278.340 322, 279.962 322 C 281.627 322, 288 328.712, 288 330.467 C 288 331.333, 288.870 332, 290 332 C 291.166 332, 292 332.667, 292 333.599 C 292 334.478, 293.350 336.459, 295 338 C 296.650 339.541, 298 341.522, 298 342.401 C 298 343.281, 298.450 344, 299 344 C 299.550 344, 300 344.801, 300 345.779 C 300 346.758, 300.900 348.207, 302 349 C 303.393 350.004, 304 351.589, 304 354.221 C 304 356.299, 304.450 358, 305 358 C 305.550 358, 306 359.350, 306 361 C 306 362.650, 306.450 364, 307 364 C 307.583 364, 308 367.333, 308 372 C 308 376.667, 308.417 380, 309 380 C 309.550 380, 310 381.800, 310 384 C 310 386.200, 310.450 388, 311 388 C 311.550 388, 312 389.350, 312 391 C 312 393.933, 312.111 394, 317 394 L 322 394 322 390 C 322 387.800, 321.550 386, 321 386 C 320.444 386, 320 383.333, 320 380 C 320 376.667, 319.556 374, 319 374 C 318.450 374, 318 373.100, 318 372 C 318 370.900, 317.550 370, 317 370 C 316.450 370, 316 368.200, 316 366 C 316 363.800, 315.550 362, 315 362 C 314.450 362, 314 360.650, 314 359 C 314 357.350, 313.550 356, 313 356 C 312.450 356, 312 355.100, 312 354 C 312 352.900, 311.550 352, 311 352 C 310.450 352, 310 351.100, 310 350 C 310 348.513, 310.667 348, 312.599 348 C 314.197 348, 316.277 346.845, 318 345 C 319.541 343.350, 321.522 342, 322.401 342 C 323.281 342, 324 341.550, 324 341 C 324 340.450, 324.719 340, 325.599 340 C 326.478 340, 328.459 338.650, 330 337 C 331.541 335.350, 333.522 334, 334.401 334 C 335.281 334, 336 333.550, 336 333 C 336 332.450, 336.801 332, 337.779 332 C 338.758 332, 340.207 331.100, 341 330 C 341.793 328.900, 343.143 328, 344 328 C 344.857 328, 346.207 327.100, 347 326 C 347.793 324.900, 349.242 324, 350.221 324 C 351.199 324, 352 323.550, 352 323 C 352 322.450, 352.450 322, 353 322 C 353.600 322, 354 326, 354 332 C 354 338, 354.400 342, 355 342 C 355.550 342, 356 343.350, 356 345 C 356 346.650, 356.450 348, 357 348 C 357.550 348, 358 348.707, 358 349.571 C 358 351.416, 360.350 354, 362.027 354 C 362.671 354, 364.459 355.350, 366 357 C 367.541 358.650, 369.423 360, 370.180 360 C 370.938 360, 372.207 360.900, 373 362 C 374.004 363.393, 375.589 364, 378.221 364 C 380.299 364, 382 364.450, 382 365 C 382 365.550, 384.250 366, 387 366 C 389.750 366, 392 366.450, 392 367 C 392 367.611, 396.667 368, 404 368 C 411.333 368, 416 367.611, 416 367 C 416 366.450, 416.900 366, 418 366 C 419.810 366, 420 366.667, 420 373 C 420 377, 419.571 380, 419 380 C 418.429 380, 418 383, 418 387 C 418 393.852, 418.054 394, 420.571 394 C 424.587 394, 426 391.806, 426 385.571 C 426 382.507, 426.450 380, 427 380 C 427.550 380, 428 378.650, 428 377 C 428 375.350, 428.240 374, 428.533 374 C 429.539 374, 436 380.933, 436 382.012 C 436 383.644, 440.696 388, 442.455 388 C 443.305 388, 444 388.707, 444 389.571 C 444 390.436, 444.643 391.786, 445.429 392.571 C 447.044 394.187, 454 394.534, 454 393 C 454 392.450, 453.550 392, 453 392 C 452.450 392, 452 391.100, 452 390 C 452 388.874, 451.333 388, 450.474 388 C 448.718 388, 440 379.616, 440 377.928 C 440 377.309, 438.650 375.541, 437 374 C 435.350 372.459, 434 370.577, 434 369.820 C 434 369.062, 433.100 367.793, 432 367 C 430.900 366.207, 430 365.208, 430 364.779 C 430 364.351, 430.900 364, 432 364 C 433.100 364, 434 363.550, 434 363 C 434 362.450, 435.350 362, 437 362 C 438.650 362, 440 361.550, 440 361 C 440 360.450, 440.900 360, 442 360 C 443.100 360, 444 359.550, 444 359 C 444 358.450, 444.900 358, 446 358 C 447.100 358, 448 357.550, 448 357 C 448 356.450, 449.350 356, 451 356 C 452.650 356, 454 355.550, 454 355 C 454 354.450, 454.707 354, 455.571 354 C 457.932 354, 460 351.465, 460 348.571 C 460 346.667, 459.481 346, 458 346 C 456.900 346, 456 346.450, 456 347 C 456 347.550, 454.650 348, 453 348 C 451.350 348, 450 348.450, 450 349 C 450 349.550, 448.650 350, 447 350 C 445.350 350, 444 350.450, 444 351 C 444 351.550, 443.100 352, 442 352 C 440.900 352, 440 352.450, 440 353 C 440 353.550, 439.100 354, 438 354 C 436.900 354, 436 354.450, 436 355 C 436 355.550, 434.200 356, 432 356 C 429.800 356, 428 356.450, 428 357 C 428 357.550, 427.100 358, 426 358 C 424.900 358, 424 358.450, 424 359 C 424 359.550, 422.200 360, 420 360 C 417.800 360, 416 360.450, 416 361 C 416 361.622, 410.333 362, 401 362 C 391.667 362, 386 361.622, 386 361 C 386 360.450, 384.650 360, 383 360 C 381.350 360, 380 359.550, 380 359 C 380 358.450, 379.100 358, 378 358 C 376.900 358, 376 357.550, 376 357 C 376 356.450, 375.100 356, 374 356 C 372.900 356, 372 355.550, 372 355 C 372 354.450, 371.305 354, 370.455 354 C 368.454 354, 364 349.546, 364 347.545 C 364 346.695, 363.550 346, 363 346 C 362.450 346, 362 344.650, 362 343 C 362 341.350, 361.550 340, 361 340 C 360.450 340, 360 338.200, 360 336 C 360 333.800, 360.450 332, 361 332 C 361.600 332, 362 328, 362 322 C 362 312.812, 361.844 312, 360.083 312 C 359.029 312, 357.965 311.438, 357.718 310.750 C 357.414 309.902, 356.625 310.224, 355.267 311.750 C 354.166 312.988, 352.630 314, 351.853 314 C 351.077 314, 349.793 314.900, 349 316 C 348.207 317.100, 346.938 318, 346.180 318 C 345.423 318, 343.541 319.350, 342 321 C 340.459 322.650, 338.209 324, 337 324 C 335.791 324, 333.541 325.350, 332 327 C 330.459 328.650, 328.577 330, 327.820 330 C 327.062 330, 325.793 330.900, 325 332 C 324.207 333.100, 322.857 334, 322 334 C 321.143 334, 319.793 334.900, 319 336 C 318.207 337.100, 316.758 338, 315.779 338 C 314.801 338, 314 338.450, 314 339 C 314 339.550, 313.100 340, 312 340 C 310.900 340, 310 340.450, 310 341 C 310 341.550, 309.305 342, 308.455 342 C 306.675 342, 302 337.635, 302 335.974 C 302 334.342, 299.390 332, 297.571 332 C 296.707 332, 296 331.305, 296 330.455 C 296 328.689, 291.641 324, 290 324 C 288.359 324, 284 319.311, 284 317.545 C 284 316.695, 283.296 316, 282.435 316 C 281.574 316, 278.679 313.750, 276 311 C 273.321 308.250, 270.606 306, 269.966 306 C 269.326 306, 267.541 304.650, 266 303 C 264.459 301.350, 262.478 300, 261.599 300 C 260.719 300, 260 299.550, 260 299 C 260 298.450, 259.100 298, 258 298 C 256.900 298, 256 297.550, 256 297 C 256 296.450, 255.199 296, 254.221 296 C 253.242 296, 251.793 295.100, 251 294 C 250.023 292.645, 248.411 292, 246 292 C 243.589 292, 241.977 291.355, 241 290 C 240.207 288.900, 238.758 288, 237.779 288 C 236.801 288, 236 287.550, 236 287 C 236 286.450, 235.100 286, 234 286 C 232.900 286, 232 285.550, 232 285 C 232 284.450, 230.200 284, 228 284 C 225.800 284, 224 283.550, 224 283 C 224 282.450, 222.650 282, 221 282 C 219.350 282, 218 281.550, 218 281 C 218 280.450, 217.100 280, 216 280 C 214.900 280, 214 279.550, 214 279 C 214 278.450, 212.650 278, 211 278 C 208.167 278, 208 277.778, 208 274 C 208 271.800, 208.450 270, 209 270 C 209.550 270, 210 268.650, 210 267 C 210 265.350, 210.450 264, 211 264 C 211.556 264, 212 261.333, 212 258 C 212 254.667, 212.444 252, 213 252 C 213.550 252, 214 249.750, 214 247 C 214 242.111, 214.067 242, 217 242 C 219.667 242, 220 241.667, 220 239 C 220 237.350, 220.450 236, 221 236 C 221.571 236, 222 233, 222 229 C 222 225, 222.429 222, 223 222 C 223.593 222, 224 218.333, 224 213 C 224 207.667, 224.407 204, 225 204 C 225.583 204, 226 200.667, 226 196 C 226 188.667, 226.167 188, 228 188 C 229.333 188, 230 187.333, 230 186 C 230 184.900, 230.450 184, 231 184 C 231.550 184, 232 181.750, 232 179 C 232 176.250, 232.450 174, 233 174 C 233.583 174, 234 170.667, 234 166 C 234 161.333, 234.417 158, 235 158 C 235.627 158, 236 151.667, 236 141 L 236 124 232 124 C 229.800 124, 228 123.550, 228 123 C 228 122.450, 227.100 122, 226 122 C 224.900 122, 224 121.550, 224 121 C 224 120.450, 223.100 120, 222 120 C 220.111 120, 220 120.667, 220 132 M 406 126 C 406 128.200, 406.450 130, 407 130 C 407.550 130, 408 129.550, 408 129 C 408 128.450, 408.900 128, 410 128 C 411.100 128, 412 127.550, 412 127 C 412 126.450, 412.900 126, 414 126 C 415.100 126, 416 125.550, 416 125 C 416 124.450, 414.650 124, 413 124 C 411.350 124, 410 123.550, 410 123 C 410 122.450, 409.100 122, 408 122 C 406.333 122, 406 122.667, 406 126 M 393.250 125.496 C 391.518 127.463, 391.679 128, 394 128 C 395.333 128, 396 127.333, 396 126 C 396 123.672, 395.015 123.491, 393.250 125.496 M 380 129 C 380 129.550, 379.100 130, 378 130 C 376.900 130, 376 130.450, 376 131 C 376 131.550, 375.305 132, 374.455 132 C 373.015 132, 368 136.238, 368 137.455 C 368 137.755, 370.700 138, 374 138 C 377.333 138, 380 137.556, 380 137 C 380 136.450, 381.800 136, 384 136 C 387.333 136, 388 135.667, 388 134 C 388 132.749, 387.333 132, 386.221 132 C 385.242 132, 383.793 131.100, 383 130 C 381.454 127.855, 380 127.371, 380 129 M 244 133.779 C 244 136.411, 244.607 137.996, 246 139 C 247.174 139.847, 248 141.589, 248 143.221 C 248 144.749, 248.450 146, 249 146 C 249.550 146, 250 147.350, 250 149 C 250 150.650, 250.450 152, 251 152 C 251.550 152, 252 153.800, 252 156 C 252 158.200, 252.450 160, 253 160 C 253.550 160, 254 160.900, 254 162 C 254 163.100, 254.450 164, 255 164 C 255.550 164, 256 166.250, 256 169 C 256 171.750, 256.450 174, 257 174 C 257.571 174, 258 177, 258 181 C 258 185, 258.429 188, 259 188 C 259.556 188, 260 190.667, 260 194 C 260 197.333, 260.444 200, 261 200 C 261.550 200, 262 201.350, 262 203 C 262 204.650, 262.450 206, 263 206 C 263.550 206, 264 207.350, 264 209 C 264 210.650, 264.450 212, 265 212 C 265.550 212, 266 213.350, 266 215 C 266 216.650, 266.450 218, 267 218 C 267.550 218, 268 218.801, 268 219.779 C 268 220.758, 268.900 222.207, 270 223 C 271.100 223.793, 272 225.242, 272 226.221 C 272 227.333, 272.749 228, 274 228 C 275.333 228, 276 228.667, 276 230 C 276 231.100, 276.450 232, 277 232 C 277.550 232, 278 232.707, 278 233.571 C 278 235.592, 280.408 238, 282.429 238 C 283.293 238, 284 238.710, 284 239.578 C 284 240.447, 285.800 242.886, 288 245 C 290.200 247.114, 292 249.553, 292 250.422 C 292 251.290, 292.695 252, 293.545 252 C 295.546 252, 300 256.454, 300 258.455 C 300 259.305, 300.690 260, 301.533 260 C 302.377 260, 304.640 261.573, 306.563 263.496 L 310.060 266.993 305.507 271.545 C 301.203 275.849, 300.861 276.004, 299.236 274.379 C 297.996 273.139, 297.863 272.546, 298.759 272.247 C 299.442 272.019, 300 270.971, 300 269.917 C 300 268.385, 299.281 268, 296.422 268 C 293.554 268, 292.080 268.795, 289 272 C 283.663 277.555, 282 277.317, 282 271 C 282 266.667, 281.733 266, 280 266 C 278.900 266, 278 265.550, 278 265 C 278 264.450, 277.550 264, 277 264 C 276.450 264, 276 264.900, 276 266 C 276 267.481, 275.333 268, 273.429 268 C 270.752 268, 268 270.027, 268 272 C 268 273.654, 265.403 276, 263.571 276 C 262.707 276, 262 276.450, 262 277 C 262 277.550, 261.550 278, 261 278 C 260.407 278, 260 274.333, 260 269 L 260 260 256 260 C 253.030 260, 252 260.405, 252 261.571 C 252 263.087, 249.745 266, 248.571 266 C 248.257 266, 248 264.650, 248 263 C 248 261.350, 248.450 260, 249 260 C 249.583 260, 250 256.667, 250 252 C 250 247.333, 250.417 244, 251 244 C 252.463 244, 252.231 236.261, 250.750 235.659 C 249.806 235.277, 249.867 234.870, 251 234 C 252.133 233.130, 252.194 232.723, 251.250 232.341 C 250.419 232.003, 250 229.513, 250 224.917 C 250 220.972, 249.570 218, 249 218 C 248.444 218, 248 215.333, 248 212 C 248 208.667, 247.556 206, 247 206 C 246.444 206, 246 203.333, 246 200 C 246 196.667, 245.556 194, 245 194 C 244.396 194, 244 189.810, 244 183.429 C 244 171.899, 243.232 170, 238.571 170 C 236.054 170, 236 170.148, 236 177 C 236 181, 236.429 184, 237 184 C 237.571 184, 238 187, 238 191 C 238 195, 238.429 198, 239 198 C 239.571 198, 240 201, 240 205 C 240 209, 240.429 212, 241 212 C 241.640 212, 242 221, 242 237 C 242 253, 241.640 262, 241 262 C 240.444 262, 240 264.667, 240 268 C 240 271.333, 239.556 274, 239 274 C 237.515 274, 237.790 276.933, 239.429 278.571 C 241.408 280.551, 243.301 280.357, 245 278 C 245.793 276.900, 247.242 276, 248.221 276 C 249.199 276, 250 275.550, 250 275 C 250 274.450, 250.450 274, 251 274 C 251.550 274, 252 275.800, 252 278 C 252 280.200, 251.550 282, 251 282 C 249.515 282, 249.790 284.933, 251.429 286.571 C 253.581 288.724, 259.282 288.383, 261 286 C 261.793 284.900, 263.052 284, 263.799 284 C 264.546 284, 266.886 282.200, 269 280 C 273.904 274.896, 276 274.768, 276 279.571 C 276 281.536, 276.643 283.786, 277.429 284.571 C 279.067 286.210, 282 286.485, 282 285 C 282 284.450, 282.801 284, 283.779 284 C 284.758 284, 286.207 283.100, 287 282 C 287.793 280.900, 289.242 280, 290.221 280 C 291.333 280, 292 279.251, 292 278 C 292 275.297, 292.706 275.473, 296 279 C 298.711 281.902, 304 283.224, 304 281 C 304 280.450, 304.695 280, 305.545 280 C 307.546 280, 312 275.546, 312 273.545 C 312 271.336, 315.296 271.636, 317 274 C 317.793 275.100, 319.242 276, 320.221 276 C 321.199 276, 322 276.685, 322 277.522 C 322 279.228, 332.369 290, 334.012 290 C 335.640 290, 342 296.741, 342 298.467 C 342 299.622, 343.133 300, 346.599 300 C 350.419 300, 351.672 300.508, 354 303 C 355.541 304.650, 357.522 306, 358.401 306 C 359.281 306, 360 306.450, 360 307 C 360 307.550, 360.900 308, 362 308 C 363.333 308, 364 308.667, 364 310 C 364 311.333, 364.667 312, 366 312 C 367.100 312, 368 312.450, 368 313 C 368 313.550, 368.900 314, 370 314 C 371.100 314, 372 314.450, 372 315 C 372 315.550, 373.350 316, 375 316 C 376.650 316, 378 316.450, 378 317 C 378 317.550, 378.900 318, 380 318 C 381.100 318, 382 318.450, 382 319 C 382 319.550, 383.350 320, 385 320 C 386.650 320, 388 320.450, 388 321 C 388 321.550, 389.350 322, 391 322 C 392.650 322, 394 322.450, 394 323 C 394 323.610, 398.593 324, 405.779 324 C 416.411 324, 417.699 323.805, 419 322 C 419.795 320.897, 421.589 320, 423 320 C 424.411 320, 426.205 319.103, 427 318 C 427.793 316.900, 429.512 316, 430.820 316 C 432.172 316, 434.406 314.707, 436 313 C 437.541 311.350, 439.522 310, 440.401 310 C 441.281 310, 442 309.550, 442 309 C 442 308.450, 442.700 308, 443.555 308 C 444.411 308, 447.761 305.300, 451 302 C 454.239 298.700, 457.589 296, 458.445 296 C 459.722 296, 460 294.571, 460 288 C 460 283.600, 459.750 280, 459.445 280 C 459.139 280, 456.239 282.700, 453 286 C 449.761 289.300, 446.411 292, 445.555 292 C 444.700 292, 444 292.695, 444 293.545 C 444 295.435, 439.591 300, 437.766 300 C 437.038 300, 435.793 300.900, 435 302 C 434.207 303.100, 432.857 304, 432 304 C 431.143 304, 429.793 304.900, 429 306 C 428.207 307.100, 426.938 308, 426.180 308 C 425.423 308, 423.541 309.350, 422 311 C 420.459 312.650, 418.478 314, 417.599 314 C 416.719 314, 416 314.450, 416 315 C 416 315.550, 414.650 316, 413 316 C 411.350 316, 410 316.450, 410 317 C 410 317.556, 407.333 318, 404 318 C 400.667 318, 398 317.556, 398 317 C 398 316.450, 395.750 316, 393 316 C 390.250 316, 388 315.550, 388 315 C 388 314.450, 386.749 314, 385.221 314 C 383.589 314, 381.847 313.174, 381 312 C 380.153 310.826, 378.411 310, 376.779 310 C 375.251 310, 374 309.550, 374 309 C 374 308.450, 373.100 308, 372 308 C 370.900 308, 370 307.550, 370 307 C 370 306.450, 369.281 306, 368.401 306 C 367.522 306, 365.541 304.650, 364 303 C 362.277 301.155, 360.197 300, 358.599 300 C 356.667 300, 356 299.487, 356 298 C 356 296.667, 355.333 296, 354 296 C 352.900 296, 352 295.550, 352 295 C 352 294.450, 351.281 294, 350.401 294 C 349.522 294, 347.541 292.650, 346 291 C 344.459 289.350, 342.478 288, 341.599 288 C 340.667 288, 340 287.166, 340 286 C 340 284.519, 339.333 284, 337.429 284 C 334.779 284, 332 281.978, 332 280.050 C 332 278.662, 321.393 268, 320.012 268 C 318.650 268, 294 243.327, 294 241.964 C 294 240.562, 289.391 236, 287.974 236 C 286.149 236, 284 233.299, 284 231.007 C 284 229.759, 281.920 226.844, 279 224 C 276.250 221.321, 274 218.426, 274 217.565 C 274 216.704, 273.550 216, 273 216 C 272.450 216, 272 215.100, 272 214 C 272 212.900, 271.550 212, 271 212 C 270.450 212, 270 210.650, 270 209 C 270 207.350, 269.550 206, 269 206 C 268.450 206, 268 204.650, 268 203 C 268 201.350, 267.550 200, 267 200 C 266.450 200, 266 198.200, 266 196 C 266 193.800, 265.550 192, 265 192 C 264.444 192, 264 189.333, 264 186 C 264 182.667, 263.556 180, 263 180 C 262.444 180, 262 177.333, 262 174 C 262 170.667, 261.556 168, 261 168 C 260.450 168, 260 166.200, 260 164 C 260 161.800, 259.550 160, 259 160 C 258.450 160, 258 159.100, 258 158 C 258 156.900, 257.550 156, 257 156 C 256.450 156, 256 154.650, 256 153 C 256 151.350, 255.550 150, 255 150 C 254.450 150, 254 149.100, 254 148 C 254 146.900, 253.550 146, 253 146 C 252.450 146, 252 144.650, 252 143 C 252 141.350, 251.550 140, 251 140 C 250.450 140, 250 138.855, 250 137.455 C 250 135.262, 246.149 130, 244.545 130 C 244.245 130, 244 131.701, 244 133.779 M 422 135 C 418.771 138.509, 416.723 139.906, 414.750 139.945 C 413.238 139.975, 412 140.450, 412 141 C 412 141.550, 411.100 142, 410 142 C 408.900 142, 408 142.450, 408 143 C 408 143.550, 407.100 144, 406 144 C 404.900 144, 404 144.450, 404 145 C 404 145.550, 402.650 146, 401 146 C 399.350 146, 398 146.450, 398 147 C 398 147.550, 395.750 148, 393 148 C 390.250 148, 388 148.450, 388 149 C 388 149.550, 386.238 150, 384.083 150 C 381.928 150, 379.904 150.562, 379.583 151.250 C 379.117 152.250, 378.883 152.250, 378.417 151.250 C 378.096 150.563, 376.521 150, 374.917 150 C 372.667 150, 372 150.457, 372 152 C 372 153.660, 372.667 154, 375.917 154 C 378.072 154, 380.096 154.562, 380.417 155.250 C 380.883 156.250, 381.117 156.250, 381.583 155.250 C 381.904 154.562, 383.928 154, 386.083 154 C 388.238 154, 390 153.550, 390 153 C 390 152.450, 391.800 152, 394 152 C 396.200 152, 398 151.550, 398 151 C 398 150.450, 399.350 150, 401 150 C 402.650 150, 404 149.550, 404 149 C 404 148.450, 405.701 148, 407.779 148 C 410.411 148, 411.996 147.393, 413 146 C 413.793 144.900, 415.143 144, 416 144 C 416.857 144, 418.207 143.100, 419 142 C 419.793 140.900, 421.038 140, 421.766 140 C 424.012 140, 428 135.231, 428 132.545 C 428 131.145, 427.663 130.025, 427.250 130.055 C 426.837 130.085, 424.475 132.310, 422 135 M 276 141 C 276 141.550, 275.100 142, 274 142 C 272.900 142, 272 142.450, 272 143 C 272 143.550, 271.199 144, 270.221 144 C 269.242 144, 267.793 144.900, 267 146 C 266.207 147.100, 264.758 148, 263.779 148 C 262.667 148, 262 148.749, 262 150 C 262 151.100, 261.550 152, 261 152 C 260.450 152, 260 152.900, 260 154 C 260 157.549, 264.665 156.512, 269 152 C 271.114 149.800, 273.553 148, 274.422 148 C 275.290 148, 276 147.550, 276 147 C 276 146.450, 276.900 146, 278 146 C 279.100 146, 280 145.550, 280 145 C 280 144.421, 283.190 144, 287.571 144 C 294.525 144, 298 142.857, 298 140.571 C 298 140.257, 293.050 140, 287 140 C 280.333 140, 276 140.394, 276 141 M 36 149 C 36 149.550, 34.650 150, 33 150 C 31.350 150, 30 150.450, 30 151 C 30 151.550, 29.100 152, 28 152 C 26.900 152, 26 152.450, 26 153 C 26 153.550, 25.300 154, 24.445 154 C 23.589 154, 20.239 156.700, 17 160 C 11.202 165.907, 11.024 166, 5.555 166 C 0.049 166, 0 166.027, 0 169 C 0 171.833, 0.222 172, 4 172 L 8 172 8 182 C 8 188, 8.400 192, 9 192 C 9.550 192, 10 193.350, 10 195 C 10 196.650, 10.450 198, 11 198 C 11.550 198, 12 199.133, 12 200.519 C 12 202.284, 13.938 204.975, 18.481 209.519 C 22.046 213.083, 25.547 216, 26.261 216 C 26.974 216, 28.207 216.900, 29 218 C 29.847 219.174, 31.589 220, 33.221 220 C 34.749 220, 36 220.450, 36 221 C 36 221.550, 37.800 222, 40 222 C 42.200 222, 44 222.450, 44 223 C 44 223.550, 45.800 224, 48 224 C 50.200 224, 52 223.550, 52 223 C 52 222.444, 54.667 222, 58 222 C 61.333 222, 64 221.556, 64 221 C 64 220.444, 66.667 220, 70 220 C 73.333 220, 76 219.556, 76 219 C 76 218.450, 76.900 218, 78 218 C 79.100 218, 80 217.550, 80 217 C 80 216.450, 80.719 216, 81.599 216 C 82.478 216, 84.459 214.650, 86 213 C 87.541 211.350, 89.522 210, 90.401 210 C 91.333 210, 92 209.166, 92 208 C 92 206.900, 92.450 206, 93 206 C 93.550 206, 94 205.100, 94 204 C 94 202.900, 94.450 202, 95 202 C 95.550 202, 96 201.199, 96 200.221 C 96 199.242, 96.900 197.793, 98 197 C 99.763 195.729, 100 194.411, 100 185.863 C 100 179.032, 99.633 176.044, 98.759 175.753 C 97.856 175.452, 97.973 174.884, 99.188 173.670 C 101.022 171.835, 104 171.420, 104 173 C 104 173.606, 108.333 174, 115 174 C 121.667 174, 126 174.394, 126 175 C 126 175.550, 127.350 176, 129 176 C 131.667 176, 132 175.667, 132 173 L 132 170 121 170 C 114.333 170, 110 169.606, 110 169 C 110 168.422, 106.822 168, 102.467 168 C 95.164 168, 94.824 167.891, 91.367 164.433 C 89.405 162.472, 88.132 160.559, 88.537 160.183 C 88.942 159.808, 89.475 160.063, 89.720 160.750 C 90.561 163.105, 92 162.001, 92 159 C 92 156.333, 91.667 156, 89 156 C 87.350 156, 86 155.550, 86 155 C 86 154.429, 83 154, 79 154 C 75 154, 72 153.571, 72 153 C 72 152.444, 69.333 152, 66 152 C 62.667 152, 60 151.556, 60 151 C 60 150.450, 59.100 150, 58 150 C 56.900 150, 56 149.550, 56 149 C 56 148.400, 52 148, 46 148 C 40 148, 36 148.400, 36 149 M 292 153 C 292 153.550, 290.650 154, 289 154 C 287.350 154, 286 154.450, 286 155 C 286 155.550, 285.313 156, 284.474 156 C 282.734 156, 274 164.377, 274 166.045 C 274 167.661, 276.620 170, 278.429 170 C 279.293 170, 280 170.450, 280 171 C 280 171.571, 283 172, 287 172 C 291 172, 294 171.571, 294 171 C 294 170.450, 295.350 170, 297 170 C 298.650 170, 300 169.550, 300 169 C 300 168.450, 300.900 168, 302 168 C 303.100 168, 304 167.550, 304 167 C 304 166.450, 304.900 166, 306 166 C 307.100 166, 308 165.550, 308 165 C 308 164.450, 309.157 164, 310.571 164 C 311.986 164, 313.786 163.357, 314.571 162.571 C 316.653 160.490, 316.341 158, 314 158 C 312.900 158, 312 157.550, 312 157 C 312 156.450, 311.100 156, 310 156 C 308.900 156, 308 155.550, 308 155 C 308 154.450, 305.750 154, 303 154 C 300.250 154, 298 153.550, 298 153 C 298 152.450, 296.650 152, 295 152 C 293.350 152, 292 152.450, 292 153 M 40 155 C 40 155.550, 40.900 156, 42 156 C 43.100 156, 44 155.550, 44 155 C 44 154.450, 43.100 154, 42 154 C 40.900 154, 40 154.450, 40 155 M 32 157 C 32 157.550, 32.450 158, 33 158 C 33.550 158, 34 157.550, 34 157 C 34 156.450, 33.550 156, 33 156 C 32.450 156, 32 156.450, 32 157 M 27 160 C 26.207 161.100, 24.962 162, 24.234 162 C 22.517 162, 18 166.517, 18 168.234 C 18 168.962, 17.100 170.207, 16 171 C 14.338 172.198, 14 173.589, 14 179.221 C 14 185.289, 15.137 188.090, 16.247 184.759 C 16.738 183.285, 20 186.125, 20 188.027 C 20 188.671, 21.350 190.459, 23 192 C 24.650 193.541, 26 195.072, 26 195.401 C 26 195.731, 24.650 196, 23 196 C 20.667 196, 20 195.556, 20 194 C 20 192.667, 19.333 192, 18 192 C 16.333 192, 16 192.667, 16 196 C 16 198.200, 16.450 200, 17 200 C 17.550 200, 18 200.687, 18 201.526 C 18 203.511, 26.489 212, 28.474 212 C 29.313 212, 30 212.450, 30 213 C 30 213.550, 31.251 214, 32.779 214 C 34.411 214, 36.153 214.826, 37 216 C 38.288 217.787, 39.589 218, 49.221 218 C 55.740 218, 60 217.605, 60 217 C 60 216.450, 61.800 216, 64 216 C 66.200 216, 68 215.550, 68 215 C 68 214.450, 69.350 214, 71 214 C 72.650 214, 74 213.550, 74 213 C 74 212.450, 75.137 212, 76.526 212 C 79.221 212, 88 204.155, 88 201.747 C 88 201.029, 88.900 199.793, 90 199 C 91.100 198.207, 92 196.758, 92 195.779 C 92 194.801, 92.450 194, 93 194 C 93.550 194, 94 192.650, 94 191 C 94 189.350, 94.450 188, 95 188 C 95.550 188, 96 186.200, 96 184 C 96 181.800, 95.550 180, 95 180 C 94.450 180, 94 178.650, 94 177 C 94 175.350, 93.550 174, 93 174 C 92.450 174, 92 172.650, 92 171 C 92 168.791, 91.531 168, 90.221 168 C 89.242 168, 87.793 167.100, 87 166 C 86.153 164.826, 84.411 164, 82.779 164 C 81.251 164, 80 163.550, 80 163 C 80 162.450, 78.650 162, 77 162 C 75.350 162, 74 161.550, 74 161 C 74 160.450, 73.100 160, 72 160 C 70.900 160, 70 159.550, 70 159 C 70 158.400, 66 158, 60 158 C 54 158, 50 158.400, 50 159 C 50 159.550, 48.200 160, 46 160 C 43.800 160, 42 160.450, 42 161 C 42 161.550, 40.650 162, 39 162 C 37.350 162, 36 162.450, 36 163 C 36 163.550, 34.200 164, 32 164 C 28.667 164, 28 163.667, 28 162 C 28 160.900, 28.450 160, 29 160 C 29.550 160, 30 159.550, 30 159 C 30 157.371, 28.546 157.855, 27 160 M 292 158.571 C 292 158.886, 292.675 159.818, 293.500 160.643 C 294.833 161.976, 295.167 161.976, 296.500 160.643 C 298.657 158.486, 298.381 158, 295 158 C 293.350 158, 292 158.257, 292 158.571 M 306 162 C 306 164.369, 306.634 164.509, 308.571 162.571 C 310.509 160.634, 310.369 160, 308 160 C 306.667 160, 306 160.667, 306 162 M 282.713 164.262 C 281.215 166.136, 280.779 166.260, 280.017 165.028 C 279.518 164.219, 278.806 163.861, 278.435 164.231 C 276.728 165.939, 281.100 168, 286.429 168 C 289.493 168, 292 167.755, 292 167.455 C 292 166.344, 287.047 162, 285.795 162.013 C 285.083 162.021, 283.696 163.033, 282.713 164.262 M 156 169 C 156 169.550, 154.200 170, 152 170 C 149.800 170, 148 170.450, 148 171 C 148 171.550, 147.100 172, 146 172 C 144.900 172, 144 172.450, 144 173 C 144 173.550, 143.100 174, 142 174 C 140.480 174, 140 174.667, 140 176.779 C 140 178.411, 139.174 180.153, 138 181 C 136.900 181.793, 136 182.792, 136 183.221 C 136 183.649, 136.900 184, 138 184 C 139.100 184, 140 183.550, 140 183 C 140 182.450, 140.900 182, 142 182 C 143.100 182, 144 181.550, 144 181 C 144 180.450, 146.250 180, 149 180 C 151.750 180, 154 179.550, 154 179 C 154 178.444, 156.667 178, 160 178 C 163.333 178, 166 178.444, 166 179 C 166 179.550, 167.800 180, 170 180 C 172.200 180, 174 180.450, 174 181 C 174 181.550, 174.900 182, 176 182 C 177.100 182, 178 182.450, 178 183 C 178 183.550, 178.900 184, 180 184 C 181.100 184, 182 184.450, 182 185 C 182 185.550, 182.900 186, 184 186 C 185.100 186, 186 186.450, 186 187 C 186 187.550, 186.900 188, 188 188 C 189.166 188, 190 188.667, 190 189.599 C 190 190.478, 191.350 192.459, 193 194 C 194.650 195.541, 196 197.522, 196 198.401 C 196 201.353, 192.907 200.038, 188 195 C 185.321 192.250, 182.426 190, 181.565 190 C 180.704 190, 180 189.550, 180 189 C 180 188.450, 178.200 188, 176 188 C 172.370 188, 172 188.238, 172 190.571 C 172 194.689, 169.832 196, 163.026 196 C 157.865 196, 156.526 195.616, 154.455 193.545 C 153.105 192.195, 152 190.395, 152 189.545 C 152 188.358, 150.843 188, 147 188 C 144.250 188, 142 188.450, 142 189 C 142 189.550, 141.100 190, 140 190 C 138.900 190, 138 189.550, 138 189 C 138 188.450, 137.100 188, 136 188 C 134.167 188, 134 188.667, 134 196 C 134 200.667, 134.417 204, 135 204 C 135.550 204, 136 205.251, 136 206.779 C 136 208.411, 136.826 210.153, 138 211 C 139.100 211.793, 140 213.049, 140 213.792 C 140 215.623, 142.501 218, 144.429 218 C 145.293 218, 146 218.450, 146 219 C 146 219.550, 146.900 220, 148 220 C 149.100 220, 150 220.450, 150 221 C 150 221.550, 151.350 222, 153 222 C 154.650 222, 156 222.450, 156 223 C 156 223.550, 157.800 224, 160 224 C 162.200 224, 164 224.450, 164 225 C 164 225.600, 168 226, 174 226 C 180 226, 184 225.600, 184 225 C 184 224.450, 185.800 224, 188 224 C 190.200 224, 192 223.550, 192 223 C 192 222.450, 193.350 222, 195 222 C 196.650 222, 198 221.550, 198 221 C 198 220.450, 199.350 220, 201 220 C 203.333 220, 204 219.556, 204 218 C 204 216.667, 204.667 216, 206 216 C 207.251 216, 208 215.333, 208 214.221 C 208 213.242, 208.900 211.793, 210 211 C 211.174 210.153, 212 208.411, 212 206.779 C 212 205.251, 212.450 204, 213 204 C 213.550 204, 214 202.238, 214 200.083 C 214 197.928, 214.562 195.904, 215.250 195.583 C 216.250 195.117, 216.250 194.883, 215.250 194.417 C 214.499 194.066, 214 191.872, 214 188.917 C 214 186.213, 213.550 184, 213 184 C 212.450 184, 212 183.100, 212 182 C 212 180.749, 211.333 180, 210.221 180 C 209.242 180, 207.793 179.100, 207 178 C 205.511 175.934, 202 175.232, 202 177 C 202 178.768, 198.489 178.066, 197 176 C 196.153 174.826, 194.411 174, 192.779 174 C 191.251 174, 190 173.550, 190 173 C 190 172.450, 188.200 172, 186 172 C 183.800 172, 182 171.550, 182 171 C 182 170.450, 180.200 170, 178 170 C 175.800 170, 174 169.550, 174 169 C 174 168.407, 170.333 168, 165 168 C 159.667 168, 156 168.407, 156 169 M 36 171 C 36 171.550, 35.100 172, 34 172 C 32.900 172, 32 172.450, 32 173 C 32 173.550, 31.100 174, 30 174 C 28.667 174, 28 174.667, 28 176 C 28 177.100, 27.550 178, 27 178 C 26.450 178, 26 178.900, 26 180 C 26 181.333, 26.667 182, 28 182 C 29.100 182, 30 181.550, 30 181 C 30 180.450, 30.801 180, 31.779 180 C 32.758 180, 34.207 179.100, 35 178 C 35.793 176.900, 37.242 176, 38.221 176 C 39.333 176, 40 176.749, 40 178 C 40 179.100, 40.450 180, 41 180 C 41.550 180, 42 180.695, 42 181.545 C 42 182.395, 43.105 184.195, 44.455 185.545 C 46.523 187.614, 47.866 188, 53 188 C 58.134 188, 59.477 187.614, 61.545 185.545 C 64.030 183.060, 64.833 180, 63 180 C 62.450 180, 62 179.550, 62 179 C 62 176.622, 65.486 178.365, 70 183 C 73.345 186.435, 75.673 188, 77.435 188 C 80.514 188, 80.711 186.954, 78 185 C 76.900 184.207, 76 182.758, 76 181.779 C 76 180.801, 75.290 180, 74.422 180 C 73.553 180, 71.114 178.200, 69 176 C 66.465 173.361, 64.279 172, 62.578 172 C 61.160 172, 60 171.550, 60 171 C 60 170.389, 55.333 170, 48 170 C 40.667 170, 36 170.389, 36 171 M 313 172 C 312.207 173.100, 310.758 174, 309.779 174 C 308.667 174, 308 174.749, 308 176 C 308 177.333, 307.333 178, 306 178 C 304.900 178, 304 178.450, 304 179 C 304 179.550, 301.750 180, 299 180 C 296.250 180, 294 180.450, 294 181 C 294 181.600, 290 182, 284 182 C 278.500 182, 274 182.245, 274 182.545 C 274 182.845, 275.105 184.195, 276.455 185.545 C 278.951 188.042, 286 189.116, 286 187 C 286 185.557, 289.725 185.767, 290.417 187.250 C 290.883 188.250, 291.117 188.250, 291.583 187.250 C 291.904 186.562, 293.928 186, 296.083 186 C 298.238 186, 300 185.550, 300 185 C 300 184.450, 301.251 184, 302.779 184 C 304.411 184, 306.153 183.174, 307 182 C 307.793 180.900, 309.242 180, 310.221 180 C 311.199 180, 312 179.550, 312 179 C 312 178.450, 312.900 178, 314 178 C 315.304 178, 316 177.333, 316 176.083 C 316 175.029, 316.558 173.981, 317.241 173.753 C 318.144 173.452, 318.027 172.884, 316.813 171.670 C 314.727 169.584, 314.742 169.583, 313 172 M 48 175.571 C 48 176.436, 48.675 177.818, 49.500 178.643 C 50.833 179.976, 51.167 179.976, 52.500 178.643 C 55.034 176.109, 54.353 174, 51 174 C 48.939 174, 48 174.492, 48 175.571 M 373.250 181.496 C 371 184.051, 371.757 186, 375 186 C 376.650 186, 378 185.550, 378 185 C 378 184.450, 378.450 184, 379 184 C 379.550 184, 380 184.900, 380 186 C 380 187.333, 380.667 188, 382 188 C 383.556 188, 384 188.667, 384 191 C 384 192.650, 383.550 194, 383 194 C 382.450 194, 382 194.900, 382 196 C 382 197.100, 381.550 198, 381 198 C 380.450 198, 380 198.695, 380 199.545 C 380 201.340, 375.630 206, 373.947 206 C 373.317 206, 371.541 207.350, 370 209 C 368.459 210.650, 366.478 212, 365.599 212 C 364.552 212, 364 212.880, 364 214.545 C 364 217.231, 360.012 222, 357.766 222 C 357.038 222, 355.793 222.900, 355 224 C 353.904 225.520, 352.411 226, 348.779 226 C 346.151 226, 344 225.550, 344 225 C 344 224.450, 343.100 224, 342 224 C 340.900 224, 340 223.550, 340 223 C 340 222.435, 337.143 222, 333.429 222 C 329.067 222, 326.377 221.520, 325.429 220.571 C 323.806 218.949, 323.443 210, 325 210 C 325.550 210, 326 209.265, 326 208.367 C 326 207.469, 327.012 205.834, 328.250 204.733 C 329.776 203.375, 330.098 202.586, 329.250 202.282 C 328.425 201.986, 328 199.630, 328 195.345 C 328 187.873, 326.193 184.664, 323.500 187.357 C 321.832 189.025, 321.429 196, 323 196 C 324.848 196, 324.061 201.515, 322 203 C 320.900 203.793, 320 205.242, 320 206.221 C 320 207.199, 319.550 208, 319 208 C 318.429 208, 318 211, 318 215 C 318 219, 318.429 222, 319 222 C 319.550 222, 320 222.900, 320 224 C 320 225.556, 320.667 226, 323 226 C 324.650 226, 326 226.450, 326 227 C 326 228.457, 333.727 228.227, 334.417 226.750 C 334.883 225.750, 335.117 225.750, 335.583 226.750 C 335.904 227.438, 337.029 228, 338.083 228 C 339.137 228, 340 228.450, 340 229 C 340 229.550, 341.350 230, 343 230 C 344.650 230, 346 230.450, 346 231 C 346 231.550, 347.350 232, 349 232 C 350.650 232, 352 231.550, 352 231 C 352 230.450, 352.900 230, 354 230 C 355.100 230, 356 229.550, 356 229 C 356 228.450, 357.145 228, 358.545 228 C 361.087 228, 366 224.054, 366 222.012 C 366 220.366, 372.727 214, 374.467 214 C 375.310 214, 376 213.550, 376 213 C 376 212.450, 376.900 212, 378 212 C 379.333 212, 380 211.333, 380 210 C 380 208.667, 380.667 208, 382 208 C 383.333 208, 384 207.333, 384 206 C 384 204.900, 384.450 204, 385 204 C 385.550 204, 386 203.100, 386 202 C 386 200.900, 386.450 200, 387 200 C 387.550 200, 388 197.849, 388 195.221 C 388 191.589, 387.520 190.096, 386 189 C 384.900 188.207, 384 186.951, 384 186.208 C 384 184.048, 381.358 182, 378.571 182 C 377.157 182, 376 181.550, 376 181 C 376 179.592, 374.723 179.822, 373.250 181.496 M 158 186 C 158 187.556, 158.667 188, 161 188 C 163.333 188, 164 187.556, 164 186 C 164 184.444, 163.333 184, 161 184 C 158.667 184, 158 184.444, 158 186 M 74 191 C 74 191.550, 73.100 192, 72 192 C 70.900 192, 70 192.450, 70 193 C 70 193.550, 67.750 194, 65 194 C 62.250 194, 60 194.450, 60 195 C 60 195.583, 56.667 196, 52 196 C 47.333 196, 44 195.583, 44 195 C 44 194.450, 42.650 194, 41 194 C 39.350 194, 38 193.550, 38 193 C 38 192.450, 37.550 192, 37 192 C 35.515 192, 35.790 194.933, 37.429 196.571 C 38.214 197.357, 40.014 198, 41.429 198 C 42.843 198, 44 198.450, 44 199 C 44 199.606, 48.333 200, 55 200 C 61.667 200, 66 199.606, 66 199 C 66 198.450, 67.350 198, 69 198 C 70.650 198, 72 197.550, 72 197 C 72 196.450, 72.707 196, 73.571 196 C 75.592 196, 78 193.592, 78 191.571 C 78 190.667, 77.152 190, 76 190 C 74.900 190, 74 190.450, 74 191 M 146 199 C 146 199.550, 146.450 200, 147 200 C 147.550 200, 148 200.900, 148 202 C 148 203.667, 148.667 204, 152 204 C 154.200 204, 156 204.450, 156 205 C 156 205.550, 157.350 206, 159 206 C 160.650 206, 162 206.450, 162 207 C 162 207.600, 166 208, 172 208 C 178 208, 182 207.600, 182 207 C 182 206.450, 183.350 206, 185 206 C 186.650 206, 188 205.550, 188 205 C 188 204.450, 189.350 204, 191 204 C 194.355 204, 194.654 203.511, 192.571 201.429 C 190.948 199.805, 186 199.482, 186 201 C 186 201.550, 184.650 202, 183 202 C 181.350 202, 180 202.450, 180 203 C 180 203.606, 175.667 204, 169 204 C 162.333 204, 158 203.606, 158 203 C 158 202.450, 157.100 202, 156 202 C 154.900 202, 154 201.550, 154 201 C 154 200.450, 153.100 200, 152 200 C 150.900 200, 150 199.550, 150 199 C 150 198.450, 149.100 198, 148 198 C 146.900 198, 146 198.450, 146 199 M 196 205 C 194.625 206.617, 192.713 207.954, 191.750 207.970 C 190.677 207.988, 190 208.773, 190 210 C 190 211.520, 190.667 212, 192.779 212 C 194.411 212, 196.153 211.174, 197 210 C 198.485 207.939, 204 207.152, 204 209 C 204 209.550, 205.350 210, 207 210 C 209.333 210, 210 209.556, 210 208 C 210 206.667, 209.333 206, 208 206 C 206.900 206, 206 205.550, 206 205 C 206 204.450, 205.100 204, 204 204 C 202.900 204, 202 203.550, 202 203 C 202 200.961, 198.420 202.154, 196 205 M 412 204 C 412 205.333, 412.667 206, 414 206 C 415.100 206, 416 206.450, 416 207 C 416 207.550, 417.607 208, 419.571 208 C 421.536 208, 423.786 208.643, 424.571 209.429 C 426.509 211.366, 426.369 212, 424 212 C 422.900 212, 422 212.450, 422 213 C 422 213.550, 421.100 214, 420 214 C 418.900 214, 418 214.450, 418 215 C 418 215.550, 417.199 216, 416.221 216 C 415.242 216, 413.793 216.900, 413 218 C 411.996 219.393, 410.411 220, 407.779 220 C 405.701 220, 404 220.450, 404 221 C 404 221.550, 403.100 222, 402 222 C 400.900 222, 400 222.450, 400 223 C 400 223.550, 399.100 224, 398 224 C 396.900 224, 396 224.450, 396 225 C 396 225.550, 395.100 226, 394 226 C 392.900 226, 392 226.450, 392 227 C 392 227.550, 390.200 228, 388 228 C 385.800 228, 384 228.450, 384 229 C 384 229.550, 382.650 230, 381 230 C 379.350 230, 378 230.450, 378 231 C 378 231.550, 376.650 232, 375 232 C 373.350 232, 372 232.450, 372 233 C 372 233.550, 371.100 234, 370 234 C 368.900 234, 368 234.450, 368 235 C 368 235.550, 366.650 236, 365 236 C 363.350 236, 362 236.450, 362 237 C 362 237.550, 360.650 238, 359 238 C 357.350 238, 356 238.450, 356 239 C 356 239.550, 355.100 240, 354 240 C 352.900 240, 352 240.450, 352 241 C 352 241.550, 351.100 242, 350 242 C 348.900 242, 348 242.450, 348 243 C 348 243.550, 346.200 244, 344 244 C 341.800 244, 340 244.450, 340 245 C 340 245.550, 339.100 246, 338 246 C 336.900 246, 336 246.450, 336 247 C 336 248.589, 325.073 248.216, 323.429 246.571 C 322.501 245.643, 322 242.990, 322 239 C 322 235.010, 321.499 232.357, 320.571 231.429 C 318.489 229.346, 318 229.645, 318 233 C 318 234.650, 317.550 236, 317 236 C 316.450 236, 316 237.800, 316 240 C 316 242.200, 315.550 244, 315 244 C 314.450 244, 314 244.695, 314 245.545 C 314 247.435, 318.409 252, 320.234 252 C 320.962 252, 322.207 252.900, 323 254 C 324.489 256.066, 328 256.768, 328 255 C 328 254.450, 327.550 254, 327 254 C 326.450 254, 326 253.550, 326 253 C 326 252.450, 327.350 252, 329 252 C 330.650 252, 332 252.450, 332 253 C 332 253.550, 332.719 254, 333.599 254 C 334.478 254, 336.459 255.350, 338 257 C 339.541 258.650, 341.423 260, 342.180 260 C 342.938 260, 344.207 260.900, 345 262 C 345.793 263.100, 347.143 264, 348 264 C 348.857 264, 350.207 264.900, 351 266 C 351.793 267.100, 353.242 268, 354.221 268 C 355.199 268, 356 268.450, 356 269 C 356 269.550, 356.900 270, 358 270 C 359.100 270, 360 270.450, 360 271 C 360 271.550, 361.350 272, 363 272 C 364.650 272, 366 272.450, 366 273 C 366 273.571, 369 274, 373 274 C 377 274, 380 273.571, 380 273 C 380 272.450, 381.800 272, 384 272 C 386.200 272, 388 271.550, 388 271 C 388 270.450, 388.900 270, 390 270 C 391.100 270, 392 269.550, 392 269 C 392 268.450, 392.900 268, 394 268 C 395.100 268, 396 267.550, 396 267 C 396 266.450, 396.719 266, 397.599 266 C 398.478 266, 400.459 264.650, 402 263 C 403.541 261.350, 405.305 260, 405.920 260 C 407.611 260, 420 247.258, 420 245.519 C 420 244.683, 420.450 244, 421 244 C 421.550 244, 422 243.100, 422 242 C 422 240.900, 422.450 240, 423 240 C 423.550 240, 424 238.200, 424 236 C 424 233.800, 424.450 232, 425 232 C 425.550 232, 426 231.100, 426 230 C 426 228.900, 426.450 228, 427 228 C 427.550 228, 428 226.200, 428 224 C 428 221.800, 428.450 220, 429 220 C 429.550 220, 430 219.199, 430 218.221 C 430 217.242, 430.900 215.793, 432 215 C 433.100 214.207, 434 212.758, 434 211.779 C 434 210.469, 434.791 210, 437 210 C 438.650 210, 440 209.550, 440 209 C 440 208.450, 440.900 208, 442 208 C 443.833 208, 444 208.667, 444 216 C 444 223.333, 444.167 224, 446 224 C 447.810 224, 448 223.333, 448 217 C 448 213, 448.429 210, 449 210 C 449.550 210, 450 208.650, 450 207 C 450 204.710, 449.546 204, 448.083 204 C 447.029 204, 445.904 203.438, 445.583 202.750 C 445.117 201.750, 444.883 201.750, 444.417 202.750 C 443.686 204.316, 420 204.559, 420 203 C 420 202.450, 418.200 202, 416 202 C 412.667 202, 412 202.333, 412 204 M 417 224 C 416.207 225.100, 414.758 226, 413.779 226 C 412.801 226, 412 226.450, 412 227 C 412 227.550, 410.650 228, 409 228 C 406.667 228, 406 228.444, 406 230 C 406 231.556, 405.333 232, 403 232 C 401.350 232, 400 232.450, 400 233 C 400 233.550, 399.100 234, 398 234 C 396.900 234, 396 234.450, 396 235 C 396 235.550, 393.750 236, 391 236 C 386.667 236, 386 236.267, 386 238 C 386 239.721, 385.333 240, 381.221 240 C 377.589 240, 376.096 240.480, 375 242 C 373.936 243.476, 372.411 244, 369.180 244 C 365.605 244, 364.288 244.550, 362 247 C 359.532 249.642, 358.530 250, 353.599 250 C 350.519 250, 348 250.450, 348 251 C 348 251.550, 346.650 252, 345 252 C 342.667 252, 342 252.444, 342 254 C 342 255.333, 342.667 256, 344 256 C 345.100 256, 346 256.450, 346 257 C 346 257.550, 346.900 258, 348 258 C 349.100 258, 350 258.450, 350 259 C 350 259.550, 351.350 260, 353 260 C 354.650 260, 356 260.450, 356 261 C 356 261.550, 357.350 262, 359 262 C 360.650 262, 362 261.550, 362 261 C 362 260.450, 364.151 260, 366.779 260 C 370.411 260, 371.904 259.520, 373 258 C 374.144 256.413, 375.589 256, 380 256 C 384.411 256, 385.856 255.587, 387 254 C 387.793 252.900, 389.499 252, 390.792 252 C 393.492 252, 396 249.867, 396 247.571 C 396 246.667, 396.848 246, 398 246 C 399.100 246, 400 245.550, 400 245 C 400 244.450, 400.707 244, 401.571 244 C 403.932 244, 406 241.465, 406 238.571 C 406 236.483, 406.478 236, 408.545 236 C 411.231 236, 416 232.012, 416 229.766 C 416 229.038, 416.900 227.793, 418 227 C 419.931 225.608, 420.812 222, 419.221 222 C 418.792 222, 417.793 222.900, 417 224 M 416 238 C 416 239.333, 415.333 240, 414 240 C 412.874 240, 412 240.667, 412 241.526 C 412 243.511, 403.511 252, 401.526 252 C 400.687 252, 400 252.450, 400 253 C 400 253.550, 399.199 254, 398.221 254 C 397.242 254, 395.793 254.900, 395 256 C 394.207 257.100, 392.758 258, 391.779 258 C 390.801 258, 390 258.450, 390 259 C 390 259.550, 388.200 260, 386 260 C 383.800 260, 382 260.450, 382 261 C 382 261.550, 381.100 262, 380 262 C 378.900 262, 378 262.450, 378 263 C 378 263.550, 376.650 264, 375 264 C 373.350 264, 372 264.450, 372 265 C 372 265.556, 369.333 266, 366 266 C 362.667 266, 360 266.444, 360 267 C 360 267.550, 361.350 268, 363 268 C 364.650 268, 366 268.450, 366 269 C 366 269.550, 368.250 270, 371 270 C 373.750 270, 376 269.550, 376 269 C 376 268.450, 378.250 268, 381 268 C 383.750 268, 386 267.550, 386 267 C 386 266.450, 386.900 266, 388 266 C 389.100 266, 390 265.550, 390 265 C 390 264.450, 390.801 264, 391.779 264 C 392.758 264, 394.207 263.100, 395 262 C 395.793 260.900, 397.488 260, 398.766 260 C 401.393 260, 406 255.889, 406 253.545 C 406 252.695, 406.707 252, 407.571 252 C 409.499 252, 412 249.623, 412 247.792 C 412 247.049, 412.900 245.793, 414 245 C 415.100 244.207, 416 242.758, 416 241.779 C 416 240.801, 416.450 240, 417 240 C 417.550 240, 418 239.100, 418 238 C 418 236.900, 417.550 236, 417 236 C 416.450 236, 416 236.900, 416 238 M 30.250 264.525 C 27.632 267.322, 27.458 268.601, 29.429 270.571 C 31.191 272.334, 33.691 272.426, 34.252 270.750 C 34.506 269.992, 36.277 271.171, 38.757 273.750 C 41.004 276.087, 43.373 278, 44.020 278 C 44.668 278, 46.459 279.350, 48 281 C 49.541 282.650, 51.332 284, 51.980 284 C 52.627 284, 54.886 285.800, 57 288 C 59.114 290.200, 61.373 292, 62.020 292 C 62.668 292, 64.459 293.350, 66 295 C 67.541 296.650, 69.522 298, 70.401 298 C 71.281 298, 72 298.450, 72 299 C 72 299.550, 72.900 300, 74 300 C 75.100 300, 76 300.450, 76 301 C 76 301.550, 76.900 302, 78 302 C 79.100 302, 80 302.450, 80 303 C 80 303.550, 80.900 304, 82 304 C 83.100 304, 84 304.450, 84 305 C 84 305.550, 85.800 306, 88 306 C 90.200 306, 92 306.450, 92 307 C 92 307.625, 98 308, 108 308 C 118 308, 124 307.625, 124 307 C 124 306.450, 125.251 306, 126.779 306 C 128.411 306, 130.153 305.174, 131 304 C 131.793 302.900, 133.242 302, 134.221 302 C 135.199 302, 136 301.550, 136 301 C 136 300.450, 136.900 300, 138 300 C 139.100 300, 140 299.550, 140 299 C 140 298.450, 140.900 298, 142 298 C 143.100 298, 144 297.550, 144 297 C 144 296.450, 144.900 296, 146 296 C 147.100 296, 148 295.550, 148 295 C 148 294.450, 148.900 294, 150 294 C 151.100 294, 152 293.550, 152 293 C 152 292.450, 152.801 292, 153.779 292 C 154.758 292, 156.207 291.100, 157 290 C 157.793 288.900, 159.062 288, 159.820 288 C 160.577 288, 162.459 286.650, 164 285 C 165.541 283.350, 167.522 282, 168.401 282 C 169.281 282, 170 281.550, 170 281 C 170 280.450, 170.801 280, 171.779 280 C 172.758 280, 174.207 279.100, 175 278 C 175.847 276.826, 177.589 276, 179.221 276 C 181.539 276, 182 275.574, 182 273.429 C 182 269.870, 179.786 268, 175.571 268 C 172.402 268, 172 268.290, 172 270.571 C 172 273.465, 169.932 276, 167.571 276 C 166.707 276, 166 276.450, 166 277 C 166 277.550, 165.100 278, 164 278 C 162.900 278, 162 278.450, 162 279 C 162 279.556, 159.333 280, 156 280 C 152.667 280, 150 280.444, 150 281 C 150 281.638, 141.667 282, 127 282 C 112.333 282, 104 281.638, 104 281 C 104 280.444, 101.333 280, 98 280 C 94.667 280, 92 279.556, 92 279 C 92 278.450, 90.200 278, 88 278 C 85.800 278, 84 277.550, 84 277 C 84 276.394, 79.667 276, 73 276 C 66.333 276, 62 275.606, 62 275 C 62 274.429, 59 274, 55 274 C 51 274, 48 273.571, 48 273 C 48 272.450, 47.100 272, 46 272 C 44.900 272, 44 271.550, 44 271 C 44 270.450, 42.843 270, 41.429 270 C 38.511 270, 34.697 266.934, 36.759 266.247 C 37.442 266.019, 38 264.971, 38 263.917 C 38 261.115, 33.081 261.501, 30.250 264.525 M 16 278.917 C 16 280.521, 15.438 282.096, 14.750 282.417 C 13.750 282.883, 13.750 283.117, 14.750 283.583 C 15.438 283.904, 16 285.029, 16 286.083 C 16 287.137, 16.450 288, 17 288 C 17.550 288, 18 289.350, 18 291 C 18 292.650, 18.450 294, 19 294 C 19.550 294, 20 295.350, 20 297 C 20 298.650, 20.450 300, 21 300 C 21.550 300, 22 300.900, 22 302 C 22 303.100, 22.450 304, 23 304 C 23.550 304, 24 304.900, 24 306 C 24 307.100, 24.450 308, 25 308 C 25.550 308, 26 309.350, 26 311 C 26 312.650, 26.450 314, 27 314 C 27.550 314, 28 315.350, 28 317 C 28 318.650, 28.450 320, 29 320 C 29.550 320, 30 320.690, 30 321.533 C 30 322.938, 36.228 330, 37.467 330 C 37.760 330, 38 328.650, 38 327 C 38 325.350, 37.550 324, 37 324 C 36.450 324, 36 323.100, 36 322 C 36 320.900, 35.550 320, 35 320 C 34.450 320, 34 319.199, 34 318.221 C 34 317.242, 33.100 315.793, 32 315 C 30.900 314.207, 30 312.758, 30 311.779 C 30 310.801, 29.550 310, 29 310 C 28.450 310, 28 308.200, 28 306 C 28 303.800, 27.550 302, 27 302 C 26.450 302, 26 301.100, 26 300 C 26 298.900, 25.550 298, 25 298 C 24.450 298, 24 297.199, 24 296.221 C 24 295.242, 23.100 293.793, 22 293 C 20.480 291.904, 20 290.411, 20 286.779 C 20 284.151, 19.550 282, 19 282 C 18.450 282, 18 280.650, 18 279 C 18 277.350, 17.550 276, 17 276 C 16.450 276, 16 277.313, 16 278.917 M 52 278.571 C 52 278.886, 52.643 279.786, 53.429 280.571 C 55.052 282.195, 60 282.518, 60 281 C 60 280.450, 58.650 280, 57 280 C 55.350 280, 54 279.550, 54 279 C 54 278.450, 53.550 278, 53 278 C 52.450 278, 52 278.257, 52 278.571 M 186 279.599 C 186 280.478, 184.650 282.459, 183 284 C 181.293 285.594, 180 287.828, 180 289.180 C 180 290.488, 179.100 292.207, 178 293 C 176.900 293.793, 176 295.242, 176 296.221 C 176 297.199, 175.550 298, 175 298 C 174.450 298, 174 298.900, 174 300 C 174 301.100, 173.550 302, 173 302 C 172.450 302, 172 302.900, 172 304 C 172 305.100, 171.550 306, 171 306 C 170.450 306, 170 306.801, 170 307.779 C 170 308.758, 169.100 310.207, 168 311 C 166.900 311.793, 166 313.242, 166 314.221 C 166 315.199, 165.550 316, 165 316 C 164.450 316, 164 316.900, 164 318 C 164 319.100, 163.550 320, 163 320 C 162.450 320, 162 320.900, 162 322 C 162 323.100, 161.550 324, 161 324 C 160.450 324, 160 324.900, 160 326 C 160 327.100, 159.550 328, 159 328 C 158.450 328, 158 328.863, 158 329.917 C 158 330.971, 157.438 332.034, 156.750 332.280 C 156.063 332.525, 155.808 333.058, 156.183 333.463 C 157.106 334.458, 164 327.464, 164 325.533 C 164 324.690, 164.450 324, 165 324 C 165.550 324, 166 323.199, 166 322.221 C 166 321.242, 166.900 319.793, 168 319 C 169.100 318.207, 170 316.758, 170 315.779 C 170 314.801, 170.450 314, 171 314 C 171.550 314, 172 313.100, 172 312 C 172 310.900, 172.450 310, 173 310 C 173.550 310, 174 309.100, 174 308 C 174 306.900, 174.450 306, 175 306 C 175.550 306, 176 305.199, 176 304.221 C 176 303.242, 176.900 301.793, 178 301 C 179.174 300.153, 180 298.411, 180 296.779 C 180 295.251, 180.450 294, 181 294 C 181.550 294, 182 293.100, 182 292 C 182 290.900, 182.450 290, 183 290 C 183.550 290, 184 289.199, 184 288.221 C 184 287.242, 184.900 285.793, 186 285 C 188.061 283.515, 188.848 278, 187 278 C 186.450 278, 186 278.719, 186 279.599 M 397 280 C 396.207 281.100, 394.758 282, 393.779 282 C 392.801 282, 392 282.450, 392 283 C 392 283.550, 390.650 284, 389 284 C 386.961 284, 386 284.495, 386 285.545 C 386 287.662, 391.229 292.814, 391.759 291.222 C 391.983 290.550, 392.930 290, 393.863 290 C 394.795 290, 396.207 289.100, 397 288 C 397.793 286.900, 399.242 286, 400.221 286 C 401.199 286, 402 285.550, 402 285 C 402 284.450, 404.250 284, 407 284 C 410.879 284, 412 283.648, 412 282.429 C 412 279.456, 409.301 278, 403.792 278 C 399.589 278, 398.132 278.429, 397 280 M 66 282 C 66 283.100, 65.550 284, 65 284 C 64.450 284, 64 284.450, 64 285 C 64 285.550, 64.900 286, 66 286 C 67.100 286, 68 286.450, 68 287 C 68 287.550, 68.900 288, 70 288 C 71.100 288, 72 288.450, 72 289 C 72 289.550, 72.900 290, 74 290 C 75.100 290, 76 290.450, 76 291 C 76 291.550, 78.250 292, 81 292 C 83.750 292, 86 292.450, 86 293 C 86 293.615, 91 294, 99 294 C 107 294, 112 294.385, 112 295 C 112 295.550, 113.350 296, 115 296 C 116.650 296, 118 295.550, 118 295 C 118 294.450, 119.800 294, 122 294 C 124.200 294, 126 293.550, 126 293 C 126 292.429, 129 292, 133 292 C 137 292, 140 291.571, 140 291 C 140 290.450, 141.350 290, 143 290 C 144.650 290, 146 289.550, 146 289 C 146 288.450, 147.350 288, 149 288 C 150.650 288, 152 287.550, 152 287 C 152 286.450, 150.200 286, 148 286 C 145.800 286, 144 286.450, 144 287 C 144 287.550, 142.200 288, 140 288 C 137.800 288, 136 288.450, 136 289 C 136 289.606, 131.667 290, 125 290 C 118.333 290, 114 289.606, 114 289 C 114 288.444, 111.333 288, 108 288 C 104.667 288, 102 287.556, 102 287 C 102 286.417, 98.667 286, 94 286 C 89.333 286, 86 285.583, 86 285 C 86 284.450, 85.100 284, 84 284 C 82.900 284, 82 283.550, 82 283 C 82 281.548, 76.274 281.771, 75.583 283.250 C 75.117 284.250, 74.883 284.250, 74.417 283.250 C 74.096 282.563, 72.521 282, 70.917 282 C 69.313 282, 68 281.550, 68 281 C 68 280.450, 67.550 280, 67 280 C 66.450 280, 66 280.900, 66 282 M 78 297 C 78 297.550, 78.900 298, 80 298 C 81.100 298, 82 298.450, 82 299 C 82 299.550, 84.250 300, 87 300 C 89.750 300, 92 300.450, 92 301 C 92 301.625, 98 302, 108 302 C 118 302, 124 301.625, 124 301 C 124 300.450, 125.350 300, 127 300 C 128.650 300, 130 299.550, 130 299 C 130 298.450, 128.650 298, 127 298 C 125.350 298, 124 298.450, 124 299 C 124 299.615, 119 300, 111 300 C 103 300, 98 299.615, 98 299 C 98 298.429, 95 298, 91 298 C 87 298, 84 297.571, 84 297 C 84 296.450, 82.650 296, 81 296 C 79.350 296, 78 296.450, 78 297 M 89.250 317.496 C 88.563 318.277, 88 319.610, 88 320.458 C 88 321.733, 89.557 322, 97 322 C 102.333 322, 106 322.407, 106 323 C 106 323.550, 108.250 324, 111 324 C 113.750 324, 116 323.743, 116 323.429 C 116 322.255, 113.087 320, 111.571 320 C 110.707 320, 110 319.550, 110 319 C 110 318.450, 108.200 318, 106 318 C 103.800 318, 102 317.550, 102 317 C 102 315.410, 90.700 315.849, 89.250 317.496 M 0 370.779 C 0 384.411, 0.155 385.670, 2 387 C 3.100 387.793, 4 389.049, 4 389.792 C 4 391.952, 6.642 394, 9.429 394 C 13.187 394, 12.675 391.492, 8 387 C 5.800 384.886, 4 382.447, 4 381.578 C 4 380.710, 3.550 380, 3 380 C 2.389 380, 2 375.333, 2 368 C 2 360.667, 1.611 356, 1 356 C 0.378 356, 0 361.593, 0 370.779 " stroke="none" fill="black" fill-rule="evenodd"/>
</svg>