<svg width="128" height="128" version="1.1" xmlns="http://www.w3.org/2000/svg" desc="Created with imagetracer.js version 1.2.5" ><path fill="rgb(0,0,0)" stroke="rgb(0,0,0)" stroke-width="1" opacity="0" d="M 0 0 L 128 0 L 128 128 L 0 128 L 0 0 Z M 44 15 L 30 18 L 22 23 Q 15 28 13 38 L 13 52 L 16 58 Q 20 63 28 66 L 41 69 L 42 71 L 42 103 L 32 100 Q 24 95 22 85 L 22 81 L 10 81 L 10 91 L 16 104 Q 23 112 37 115 L 60 115 L 75 109 Q 82 104 85 94 Q 87 80 82 74 L 80 70 L 103 70 L 103 113 L 116 113 L 116 113 L 116 18 L 104 18 L 103 19 L 103 59 L 55 59 L 55 28 L 65 32 L 69 40 L 70 45 L 71 46 L 82 46 Q 83 35 78 29 Q 73 21 65 18 L 59 16 L 44 15 Z " /><path fill="rgb(0,0,0)" stroke="rgb(0,0,0)" stroke-width="1" opacity="0" d="M 39.5 27 L 42 27.5 L 42 56 Q 32 55.1 27 48.5 L 26 39.5 L 31.5 31 L 39.5 27 Z " /><path fill="rgb(0,0,0)" stroke="rgb(0,0,0)" stroke-width="1" opacity="0" d="M 55.5 73 Q 65.9 75.1 71 82.5 L 72 91.5 L 69 98 L 62.5 102 L 55 103 L 55.5 73 Z " /><path fill="rgb(75,142,218)" stroke="rgb(75,142,218)" stroke-width="1" opacity="0.4823529411764706" d="M 43.5 15 L 51 15.5 L 43.5 16 L 43.5 15 Z " /><path fill="rgb(75,142,218)" stroke="rgb(75,142,218)" stroke-width="1" opacity="0.4823529411764706" d="M 36.5 16 L 41 16.5 L 36.5 17 L 36.5 16 Z " /><path fill="rgb(75,142,218)" stroke="rgb(75,142,218)" stroke-width="1" opacity="0.4823529411764706" d="M 54.5 16 L 62 17.5 L 59.5 18 L 54.5 17 L 54.5 16 Z " /><path fill="rgb(75,142,218)" stroke="rgb(75,142,218)" stroke-width="1" opacity="0.4823529411764706" d="M 32.5 17 L 35 17.5 Q 22.6 20.1 17 29.5 L 14.5 36 L 14 33.5 L 21.5 23 L 32.5 17 Z " /><path fill="rgb(75,142,218)" stroke="rgb(75,142,218)" stroke-width="1" opacity="0.4823529411764706" d="M 63.5 18 Q 73.3 20.8 78 28.5 Q 83.1 34.8 82 46 L 70 45.5 L 81 45 Q 81.7 28.3 70.5 22 L 63.5 19 L 63.5 18 Z " /><path fill="rgb(75,142,218)" stroke="rgb(75,142,218)" stroke-width="1" opacity="0.4823529411764706" d="M 103.5 18 L 104 58.5 L 103 58.5 L 103.5 18 Z " /><path fill="rgb(75,142,218)" stroke="rgb(75,142,218)" stroke-width="1" opacity="0.4823529411764706" d="M 40.5 26 L 43 26.5 L 43 57 Q 31.4 56.2 26 48.5 L 26.5 47 L 30.5 52 L 42 56 L 42 27.5 L 40.5 27 L 40.5 26 Z " /><path fill="rgb(75,142,218)" stroke="rgb(75,142,218)" stroke-width="1" opacity="0.4823529411764706" d="M 55.5 27 Q 63.3 28.2 67 33.5 Q 70.7 36.3 70 43.5 L 69 43.5 L 69 39.5 L 64.5 32 L 55.5 28 L 55.5 27 Z " /><path fill="rgb(75,142,218)" stroke="rgb(75,142,218)" stroke-width="1" opacity="0.4823529411764706" d="M 34.5 28 L 36 28.5 L 29 33.5 Q 25.2 37.7 25.5 46 L 25 39.5 L 31.5 30 L 34.5 28 Z " /><path fill="rgb(75,142,218)" stroke="rgb(75,142,218)" stroke-width="1" opacity="0.4823529411764706" d="M 13.5 37 L 14 40.5 L 13 40.5 L 13.5 37 Z " /><path fill="rgb(75,142,218)" stroke="rgb(75,142,218)" stroke-width="1" opacity="0.4823529411764706" d="M 13.5 47 L 15 53.5 L 14 53.5 L 13.5 47 Z " /><path fill="rgb(75,142,218)" stroke="rgb(75,142,218)" stroke-width="1" opacity="0.4823529411764706" d="M 15.5 55 L 21.5 62 L 33 66.5 L 30.5 67 Q 20.9 64.6 16 57.5 L 15.5 55 Z " /><path fill="rgb(75,142,218)" stroke="rgb(75,142,218)" stroke-width="1" opacity="0.4823529411764706" d="M 34.5 67 L 43 69 L 43 103.5 L 39.5 104 L 39.5 103 L 42 102.5 L 42 70.5 L 40.5 69 L 34.5 68 L 34.5 67 Z " /><path fill="rgb(75,142,218)" stroke="rgb(75,142,218)" stroke-width="1" opacity="0.4823529411764706" d="M 78 69 L 102.5 69 L 104 70.5 L 104 111.5 L 104.5 112 L 115.5 112 L 115.5 113 L 103.5 113 L 103 112.5 L 103 70 L 79.5 70 L 82 73.5 L 84 78.5 L 83 78.5 L 78 69 Z " /><path fill="rgb(75,142,218)" stroke="rgb(75,142,218)" stroke-width="1" opacity="0.4823529411764706" d="M 55.5 72 Q 64.4 74.1 70 79.5 L 72 83.5 L 71 83.5 L 65.5 77 L 56.5 74 L 55.5 72 Z " /><path fill="rgb(75,142,218)" stroke="rgb(75,142,218)" stroke-width="1" opacity="0.4823529411764706" d="M 84.5 80 L 85 84.5 L 84 84.5 L 84.5 80 Z " /><path fill="rgb(75,142,218)" stroke="rgb(75,142,218)" stroke-width="1" opacity="0.4823529411764706" d="M 10 81 L 22 81.5 L 11 82 L 12 93.5 L 11 93.5 L 10 81 Z " /><path fill="rgb(75,142,218)" stroke="rgb(75,142,218)" stroke-width="1" opacity="0.4823529411764706" d="M 22.5 85 Q 23.7 95.8 31.5 100 L 38 102.5 L 35.5 103 L 26 96.5 L 22 88.5 L 22.5 85 Z " /><path fill="rgb(75,142,218)" stroke="rgb(75,142,218)" stroke-width="1" opacity="0.4823529411764706" d="M 72.5 85 L 73 91.5 L 67.5 100 L 63.5 102 L 64.5 100 L 69 98 Q 72.7 93.9 72.5 85 Z " /><path fill="rgb(75,142,218)" stroke="rgb(75,142,218)" stroke-width="1" opacity="0.4823529411764706" d="M 84.5 89 L 85 93.5 L 84 93.5 L 84.5 89 Z " /><path fill="rgb(75,142,218)" stroke="rgb(75,142,218)" stroke-width="1" opacity="0.4823529411764706" d="M 12.5 95 L 19.5 106 Q 25.4 111.6 35 113.5 L 32.5 114 Q 22.1 110.9 16 103.5 L 12 96.5 L 12.5 95 Z " /><path fill="rgb(75,142,218)" stroke="rgb(75,142,218)" stroke-width="1" opacity="0.4823529411764706" d="M 82.5 98 L 83 99.5 L 74.5 109 L 70.5 111 L 71.5 109 Q 77.6 107.6 80 102.5 L 82.5 98 Z " /><path fill="rgb(75,142,218)" stroke="rgb(75,142,218)" stroke-width="1" opacity="0.4823529411764706" d="M 59.5 102 L 62 102.5 L 55.5 104 L 55.5 103 L 59.5 102 Z " /><path fill="rgb(75,142,218)" stroke="rgb(75,142,218)" stroke-width="1" opacity="0.4823529411764706" d="M 67.5 111 L 69 111.5 L 61.5 114 L 61.5 113 L 67.5 111 Z " /><path fill="rgb(75,142,218)" stroke="rgb(75,142,218)" stroke-width="1" opacity="0.4823529411764706" d="M 36.5 114 L 42 114.5 L 36.5 115 L 36.5 114 Z " /><path fill="rgb(75,142,218)" stroke="rgb(75,142,218)" stroke-width="1" opacity="0.4823529411764706" d="M 54.5 114 L 60 114.5 L 54.5 115 L 54.5 114 Z " /><path fill="rgb(77,140,216)" stroke="rgb(77,140,216)" stroke-width="1" opacity="0.996078431372549" d="M 51.5 16 L 54 16.5 L 51.5 17 L 51.5 16 Z " /><path fill="rgb(77,140,216)" stroke="rgb(77,140,216)" stroke-width="1" opacity="0.996078431372549" d="M 115.5 18 L 116 111.5 L 115 111.5 L 115.5 18 Z " /><path fill="rgb(77,140,216)" stroke="rgb(77,140,216)" stroke-width="1" opacity="0.996078431372549" d="M 70.5 22 L 72.5 25 L 70.5 22 Z " /><path fill="rgb(77,140,216)" stroke="rgb(77,140,216)" stroke-width="1" opacity="0.996078431372549" d="M 54.5 26 L 55 58.5 L 54 58.5 L 54.5 26 Z " /><path fill="rgb(77,140,216)" stroke="rgb(77,140,216)" stroke-width="1" opacity="0.996078431372549" d="M 74.5 26 L 76.5 29 L 74.5 26 Z " /><path fill="rgb(77,140,216)" stroke="rgb(77,140,216)" stroke-width="1" opacity="0.996078431372549" d="M 18.5 28 L 17.5 30 L 18.5 28 Z " /><path fill="rgb(77,140,216)" stroke="rgb(77,140,216)" stroke-width="1" opacity="0.996078431372549" d="M 33.5 28 L 32.5 30 L 33.5 28 Z " /><path fill="rgb(77,140,216)" stroke="rgb(77,140,216)" stroke-width="1" opacity="0.996078431372549" d="M 30.5 30 L 28.5 33 L 30.5 30 Z " /><path fill="rgb(77,140,216)" stroke="rgb(77,140,216)" stroke-width="1" opacity="0.996078431372549" d="M 27.5 34 L 26.5 36 L 27.5 34 Z " /><path fill="rgb(77,140,216)" stroke="rgb(77,140,216)" stroke-width="1" opacity="0.996078431372549" d="M 13.5 41 L 14 46.5 L 13 46.5 L 13.5 41 Z " /><path fill="rgb(77,140,216)" stroke="rgb(77,140,216)" stroke-width="1" opacity="0.996078431372549" d="M 26.5 49 L 29.5 53 L 26.5 49 Z " /><path fill="rgb(77,140,216)" stroke="rgb(77,140,216)" stroke-width="1" opacity="0.996078431372549" d="M 17.5 57 L 21.5 62 L 17.5 57 Z " /><path fill="rgb(77,140,216)" stroke="rgb(77,140,216)" stroke-width="1" opacity="0.996078431372549" d="M 76.5 69 Q 78.8 68.3 78 70.5 L 80.5 74 L 76.5 69 Z " /><path fill="rgb(77,140,216)" stroke="rgb(77,140,216)" stroke-width="1" opacity="0.996078431372549" d="M 54.5 72 L 55 104.5 L 54 104.5 L 54.5 72 Z " /><path fill="rgb(77,140,216)" stroke="rgb(77,140,216)" stroke-width="1" opacity="0.996078431372549" d="M 66.5 76 L 67.5 78 L 66.5 76 Z " /><path fill="rgb(77,140,216)" stroke="rgb(77,140,216)" stroke-width="1" opacity="0.996078431372549" d="M 70.5 80 L 71.5 82 L 70.5 80 Z " /><path fill="rgb(77,140,216)" stroke="rgb(77,140,216)" stroke-width="1" opacity="0.996078431372549" d="M 21.5 82 L 22 85.5 L 21 85.5 L 21.5 82 Z " /><path fill="rgb(77,140,216)" stroke="rgb(77,140,216)" stroke-width="1" opacity="0.996078431372549" d="M 84.5 85 L 85 88.5 L 84 88.5 L 84.5 85 Z " /><path fill="rgb(77,140,216)" stroke="rgb(77,140,216)" stroke-width="1" opacity="0.996078431372549" d="M 24.5 94 L 25.5 96 L 24.5 94 Z " /><path fill="rgb(77,140,216)" stroke="rgb(77,140,216)" stroke-width="1" opacity="0.996078431372549" d="M 71.5 95 L 70.5 97 L 71.5 95 Z " /><path fill="rgb(77,140,216)" stroke="rgb(77,140,216)" stroke-width="1" opacity="0.996078431372549" d="M 29.5 99 L 30.5 101 L 29.5 99 Z " /><path fill="rgb(77,140,216)" stroke="rgb(77,140,216)" stroke-width="1" opacity="0.996078431372549" d="M 79.5 102 L 74.5 108 L 79.5 102 Z " /><path fill="rgb(77,140,216)" stroke="rgb(77,140,216)" stroke-width="1" opacity="0.996078431372549" d="M 18.5 104 L 19.5 106 L 18.5 104 Z " /><path fill="rgb(77,140,216)" stroke="rgb(77,140,216)" stroke-width="1" opacity="0.996078431372549" d="M 22.5 107 L 23.5 109 L 22.5 107 Z " /><path fill="rgb(77,140,216)" stroke="rgb(77,140,216)" stroke-width="1" opacity="0.996078431372549" d="M 42.5 114 L 54 114.5 L 42.5 115 L 42.5 114 Z " /><path fill="rgb(77,140,217)" stroke="rgb(77,140,217)" stroke-width="1" opacity="1" d="M 43.5 16 L 61.5 18 L 74 25 L 80 35.5 L 81 45 L 71.5 45 L 70 43.5 Q 69.8 32.8 62.5 29 L 54.5 26 L 54 59 L 104 59 L 104 18.5 L 104.5 18 L 115 18 L 115 111.5 L 114.5 112 L 104 112 L 104 69 L 76.5 69 L 81 74.5 Q 85.7 80.4 84 92.5 Q 81.7 103.2 73.5 108 Q 67.5 112.5 58.5 114 L 37.5 114 Q 23.5 111 16 101.5 Q 10.3 94.5 11 82 L 21 82 L 21 85.5 Q 22.6 96.4 30.5 101 Q 35.3 104.4 43 104 L 43 69.5 L 41.5 68 Q 24.1 66.4 16 55.5 Q 12.1 49.4 14 37.5 Q 16.8 28.3 23.5 23 L 30.5 19 L 43.5 16 Z M 40 26 L 31 30 L 25 39 Q 24 46 26 50 Q 31 56 42 57 L 43 58 L 43 27 L 40 26 Z M 54 72 L 55 105 L 67 101 Q 72 99 73 93 Q 75 85 72 82 Q 66 73 54 72 Z " /></svg>